<?xml version="1.0"?>
<svg xmlns="http://www.w3.org/2000/svg" id="Layer_1_copy" data-name="Layer 1 copy" viewBox="0 0 64 64" width="512" height="512"><path d="M36,41v2a1,1,0,0,0,2,0V41a1,1,0,0,0-2,0Z"/><path d="M28,43V41a1,1,0,0,0-2,0v2a1,1,0,0,0,2,0Z"/><path d="M14,38a1,1,0,0,0-1,1v2a1,1,0,0,0,2,0V39A1,1,0,0,0,14,38Z"/><path d="M13,22H9a1,1,0,0,0-1,1v4H5a1,1,0,0,0-1,1v6a1,1,0,0,0,1,1H8v2.764L4.105,45.553A1,1,0,0,0,4.4,46.8L8,49.5V55a4,4,0,0,0,4,4h4v4a1,1,0,0,0,1,1H47a1,1,0,0,0,1-1V59h4a4,4,0,0,0,4-4V49.5l3.6-2.7a1,1,0,0,0,.294-1.247L56,37.764V35h4a1,1,0,0,0,1-1V28a1,1,0,0,0-1-1H57V23a1,1,0,0,0-1-1H51V17a1,1,0,0,0-1-1H45V11a1,1,0,0,0-1-1H42V5a1,1,0,0,0-1-1H33V1a1,1,0,0,0-2,0V4H23a1,1,0,0,0-1,1v5H20a1,1,0,0,0-1,1v5H14a1,1,0,0,0-1,1ZM32,59a12.977,12.977,0,0,0,10-4.7V62H22V54.3A12.977,12.977,0,0,0,32,59ZM21,12h5a1,1,0,0,0,0-2H24V6H40v4H30a1,1,0,0,0,0,2H43v4H21Zm-6,6H49v4H46a1,1,0,0,0,0,2h9v3H19a1,1,0,0,0,0,2H59v4H48a1,1,0,0,0,0,2h6v3a1,1,0,0,0,.105.447L57.732,45.7,54.4,48.2a1,1,0,0,0-.4.8v6a2,2,0,0,1-2,2H47a1,1,0,0,0-1,1v4H44V50.995A12.925,12.925,0,0,0,45,46V34a1,1,0,0,0-1-1H40a1,1,0,0,0,0,2h3V46a11,11,0,0,1-22,0V35H36a1,1,0,0,0,0-2H20a1,1,0,0,0-1,1V46a12.925,12.925,0,0,0,1,4.995V62H18V58a1,1,0,0,0-1-1H12a2,2,0,0,1-2-2V49a1,1,0,0,0-.4-.8L6.268,45.7l3.627-7.253A1,1,0,0,0,10,38V35h6a1,1,0,0,0,0-2H6V29h9a1,1,0,0,0,0-2H10V24H42a1,1,0,0,0,0-2H15Z"/><path d="M36,50H28a1,1,0,0,0,0,2h8a1,1,0,0,0,0-2Z"/><path d="M50,42a1,1,0,0,0,1-1V39a1,1,0,0,0-2,0v2A1,1,0,0,0,50,42Z"/><path d="M25,32h1a1,1,0,0,0,0-2H25a1,1,0,0,0,0,2Z"/><path d="M29,32h1a1,1,0,0,0,0-2H29a1,1,0,0,0,0,2Z"/></svg>
