<svg height="511pt" viewBox="-52 0 511 511.99877" width="511pt" xmlns="http://www.w3.org/2000/svg"><path d="m297.574219 272.980469c-50.273438 29.066406-88.515625-8.816407-90.195313-10.523438-2.894531-2.964843-7.640625-3.027343-10.613281-.136719-2.972656 2.890626-3.039063 7.644532-.144531 10.621094.484375.5 12.117187 12.320313 31.203125 19.835938 8.480469 3.339844 19.25 6.109375 31.628906 6.109375 13.574219 0 29.085937-3.332031 45.640625-12.902344 25.144531-14.535156 32.542969-34.710937 34.320312-49.078125 1.910157-15.441406-2.183593-27.507812-2.359374-28.015625-1.355469-3.90625-5.605469-5.972656-9.519532-4.632813-3.914062 1.335938-6.007812 5.601563-4.6875 9.519532.511719 1.523437 12.136719 37.578125-25.273437 59.203125zm0 0"/><path d="m330.585938 423.65625-62.464844-20.023438v-49.261718c13.28125-1.441406 26.132812-4.082032 38.4375-7.90625 3.960937-1.230469 6.171875-5.4375 4.941406-9.402344-1.230469-3.960938-5.441406-6.171875-9.402344-4.941406-19.515625 6.0625-40.578125 8.921875-62.625 8.484375-37.554687-.742188-68.101562-13.363281-88.335937-36.503907-18.238281-20.851562-27.207031-50.027343-24-78.039062 2.207031-19.277344 5.976562-36.273438 9.726562-51.769531.976563-4.03125-1.5-8.089844-5.535156-9.066407-4.03125-.976562-8.089844 1.503907-9.066406 5.535157-3.675781 15.199219-7.746094 33.449219-10.050781 53.589843-3.679688 32.148438 6.644531 65.65625 27.617187 89.640626 9.378906 10.726562 23.597656 22.722656 44.285156 31.082031l-17.367187 32.53125c-2.175782 4.078125-.058594 9.285156 4.332031 10.691406l82.023437 26.292969v82.386718h-24.078124c-4.148438 0-7.511719 3.363282-7.511719 7.511719 0 4.148438 3.363281 7.511719 7.511719 7.511719h31.585937c4.148437 0 7.511719-3.363281 7.511719-7.511719v-85.082031l51.179687 16.40625-4.304687 17.210938c-.964844 3.863281 1.363281 7.921874 5.1875 9.03125 4.039062 1.171874 8.367187-1.3125 9.386718-5.390626l6.007813-24.035156c.960937-3.839844-1.222656-7.765625-4.992187-8.972656zm-146.347657-46.917969 14.296875-26.785156c11.777344 3.269531 25.246094 5.367187 40.644532 5.671875 1.554687.03125 3.101562.046875 4.648437.046875 3.109375 0 6.199219-.070313 9.273437-.191406v43.335937zm0 0"/><path d="m141.28125 56.148438c0 10.617187 6.695312 18.9375 15.242188 18.9375 8.550781 0 15.246093-8.320313 15.246093-18.9375 0-10.617188-6.699219-18.929688-15.246093-18.929688-8.546876 0-15.242188 8.3125-15.242188 18.929688zm0 0"/><path d="m361.714844 132.722656c-5.140625-6.050781-12.894532-8.945312-20.753906-7.738281-7.863282 1.207031-14.410157 6.300781-17.503907 13.628906-2.941406 6.953125-6.664062 13.875-11.074219 20.578125-2.28125 3.464844-1.316406 8.125 2.148438 10.402344 3.464844 2.28125 8.121094 1.320312 10.402344-2.148438 4.910156-7.460937 9.066406-15.195312 12.359375-22.984374 2.199219-5.207032 9.296875-6.335938 12.972656-2.011719 40.347656 47.5 43.859375 80.550781 42.359375 96.023437-3.191406 32.925782-27.082031 63.886719-63.90625 82.820313-3.6875 1.894531-5.140625 6.421875-3.246094 10.113281 1.871094 3.640625 6.46875 5.121094 10.113282 3.246094 41.394531-21.277344 68.304687-56.691406 71.992187-94.730469 2.109375-21.789063-4.132813-58.070313-45.863281-107.199219zm0 0"/><path d="m111.738281 103.101562c6.996094 4.050782 13.039063 7.550782 18.015625 17.125 2.371094 4.5625.765625 14.484376-.648437 21.550782-.8125 4.066406 1.828125 8.023437 5.894531 8.839844 4.070312.8125 8.023438-1.828126 8.835938-5.894532 2.25-11.238281 3.714843-22.824218-.75-31.421875-6.992188-13.457031-16.320313-18.859375-23.816407-23.199219-9.460937-5.480468-16.296875-9.4375-18.816406-29.320312-2.117187-16.691406 7.332031-27.433594 15.628906-33.507812 16.714844-12.234376 42.523438-15.933594 58.753907-8.425782 16.597656 7.679688 25.347656 16.585938 29.261718 29.769532 4.882813 16.457031 2.085938 40.4375-8.550781 73.320312-13.769531 42.566406-15.246094 68.753906-4.785156 84.90625 9.464843 14.621094 26.835937 18.257812 40.910156 19.792969 1.75.1875 3.535156.28125 5.347656.28125 21.039063 0 45.988281-12.695313 67.902344-34.8125 2.921875-2.949219 2.898437-7.703125-.046875-10.625-2.945312-2.917969-7.703125-2.898438-10.625.050781-20.304688 20.492188-43.660156 32.058594-60.953125 30.167969-15.996094-1.742188-25.226563-5.757813-29.929687-13.019531-7.5625-11.683594-5.449219-35.273438 6.46875-72.117188 11.765624-36.363281 14.515624-62.488281 8.660156-82.214844-3.222656-10.871094-10.605469-26.757812-37.351563-39.132812-21.082031-9.753906-52.867187-5.480469-73.933593 9.933594-4.75 3.476562-8.761719 7.367187-12.011719 11.597656-13.679688 1.015625-32.226563 3.589844-49.105469 9.972656-23.003906 8.699219-37.375 22.21875-42.71875 40.179688-6.898438 23.1875-1.214844 45.402343 15.199219 59.421874 8.535156 7.292969 21.753906 13.367188 32.800781 8.082032 10.84375-5.183594 10.257812-16.457032 9.832031-24.6875-.585937-11.25.3125-13.5 6.003907-15.066406 8-2.199219 20.429687-4.574219 36.070312-6.898438 2.796875 2.070312 5.675781 3.738281 8.457031 5.351562zm-24.699219-60.472656c-1.855468 6.320313-2.375 13.054688-1.488281 20.042969 1.183594 9.34375 3.378907 16.304687 6.1875 21.671875-9.921875 1.617188-18.179687 3.234375-24.683593 4.828125l-23.757813-34.820313c13.898437-6.855468 30.613281-10.148437 43.742187-11.722656zm-40.835937 77.863282c.339844 6.566406.234375 9.621093-1.308594 10.359374-2.480469 1.1875-9.460937.113282-16.5625-5.953124-17.433593-14.890626-12.488281-37.226563-10.558593-43.714844 2.261718-7.605469 6.863281-13.765625 12.851562-18.753906l22.488281 32.960937c-7.839843 7.015625-7.285156 17.902344-6.910156 25.101563zm0 0"/></svg>