<?xml version="1.0" encoding="UTF-8" standalone="no"?>
<!DOCTYPE svg PUBLIC "-//W3C//DTD SVG 1.1//EN" "http://www.w3.org/Graphics/SVG/1.1/DTD/svg11.dtd">
<svg version="1.1" xmlns="http://www.w3.org/2000/svg" xmlns:xlink="http://www.w3.org/1999/xlink" preserveAspectRatio="xMidYMid meet" viewBox="0 0 640 640" width="640" height="640"><defs><path d="M842.43 550.56L842.82 550.6L843.21 550.65L843.59 550.71L843.97 550.8L844.35 550.89L844.72 551L845.08 551.13L845.44 551.26L845.8 551.41L846.15 551.58L846.49 551.76L846.83 551.95L847.15 552.15L847.47 552.37L847.79 552.6L848.09 552.84L848.38 553.09L848.67 553.36L848.94 553.63L849.21 553.92L849.46 554.22L849.71 554.53L849.94 554.85L850.16 555.18L850.37 555.52L850.56 555.87L850.74 556.23L850.91 556.6L851.07 556.98L851.21 557.37L851.5 558.27L851.78 559.16L852.06 560.06L852.32 560.96L852.57 561.86L852.81 562.77L853.04 563.68L853.25 564.6L853.46 565.51L853.66 566.43L853.84 567.36L854.02 568.28L854.18 569.21L854.33 570.15L854.47 571.08L854.6 572.02L854.72 572.96L854.83 573.9L854.93 574.85L855.02 575.8L855.09 576.75L855.16 577.71L855.21 578.66L855.25 579.62L855.28 580.59L855.31 581.55L855.32 582.52L855.31 583.49L855.3 584.46L855.28 585.44L855.24 586.41L855.2 587.39L855.14 588.38L855.08 589.36L855 590.35L854.91 591.34L854.81 592.33L854.7 593.32L854.58 594.32L854.44 595.31L853.97 598.38L853.42 601.35L852.8 604.24L852.11 607.04L851.36 609.76L850.54 612.4L849.66 614.96L848.73 617.43L847.74 619.82L846.7 622.14L845.62 624.38L844.49 626.54L843.33 628.63L842.12 630.65L840.89 632.59L839.62 634.46L838.33 636.26L837.01 637.99L835.67 639.65L834.32 641.24L832.95 642.77L831.57 644.24L830.18 645.64L828.79 646.98L827.4 648.25L826.01 649.47L824.63 650.63L823.26 651.73L821.9 652.77L820.55 653.76L819.23 654.69L817.93 655.57L816.65 656.4L815.4 657.18L814.18 657.9L813 658.58L811.86 659.21L810.76 659.8L809.7 660.33L808.69 660.83L808.69 777.65L808.66 779.16L808.57 780.65L808.42 782.13L808.21 783.59L807.95 785.03L807.63 786.45L807.25 787.85L806.82 789.23L806.34 790.58L805.81 791.91L805.23 793.22L804.59 794.49L803.92 795.74L803.19 796.96L802.42 798.14L801.61 799.3L800.75 800.42L799.85 801.51L798.92 802.56L797.94 803.58L796.92 804.55L795.87 805.49L794.78 806.39L793.66 807.25L792.51 808.06L791.32 808.83L790.1 809.55L788.85 810.23L787.58 810.86L786.28 811.45L784.95 811.98L783.59 812.46L782.22 812.89L780.82 813.27L779.39 813.59L777.95 813.85L776.49 814.06L775.01 814.21L773.52 814.3L772.01 814.33L770.5 814.3L769 814.21L767.53 814.06L766.07 813.85L764.63 813.59L763.2 813.27L761.8 812.89L760.43 812.46L759.07 811.98L757.74 811.45L756.44 810.86L755.17 810.23L753.92 809.55L752.7 808.83L751.51 808.06L750.36 807.25L749.24 806.39L748.15 805.49L747.1 804.55L746.08 803.58L745.11 802.56L744.17 801.51L743.27 800.42L742.41 799.3L741.6 798.14L740.83 796.96L740.11 795.74L739.43 794.49L738.8 793.22L738.21 791.91L737.68 790.58L737.2 789.23L736.77 787.85L736.4 786.45L736.07 785.03L735.81 783.59L735.6 782.13L735.45 780.65L735.36 779.16L735.33 777.65L735.33 728.79L734.16 728.21L732.92 727.57L731.61 726.87L730.23 726.12L728.79 725.32L727.29 724.46L725.73 723.55L724.13 722.59L722.49 721.57L720.81 720.5L719.1 719.38L717.36 718.2L715.6 716.96L713.82 715.68L712.02 714.34L710.22 712.94L708.42 711.49L706.62 709.99L704.82 708.44L703.04 706.83L701.28 705.16L699.53 703.44L697.82 701.67L696.13 699.85L694.48 697.97L692.88 696.03L691.32 694.04L689.81 692L688.35 689.91L686.96 687.76L685.64 685.56L684.39 683.3L683.21 680.99L682.12 678.62L681.11 676.2L680.19 673.73L679.37 671.2L678.65 668.62L678.03 665.99L677.53 663.3L549.53 663.3L549.53 775.36L549.5 776.96L549.4 778.55L549.24 780.12L549.02 781.67L548.74 783.2L548.4 784.71L548 786.2L547.54 787.66L547.03 789.1L546.46 790.51L545.84 791.9L545.17 793.25L544.45 794.58L543.68 795.87L542.87 797.13L542 798.36L541.09 799.55L540.14 800.71L539.14 801.83L538.1 802.91L537.02 803.94L535.91 804.94L534.75 805.89L533.56 806.8L532.33 807.67L531.07 808.49L529.78 809.26L528.45 809.98L527.09 810.65L525.71 811.27L524.3 811.83L522.86 812.34L521.4 812.8L519.91 813.2L518.4 813.54L516.87 813.82L515.32 814.04L513.75 814.2L512.16 814.3L510.55 814.33L508.95 814.3L507.36 814.2L505.79 814.04L504.24 813.82L502.71 813.54L501.2 813.2L499.71 812.8L498.25 812.34L496.81 811.83L495.4 811.27L494.01 810.65L492.66 809.98L491.33 809.26L490.04 808.49L488.78 807.67L487.55 806.8L486.36 805.89L485.2 804.94L484.09 803.94L483.01 802.91L481.97 801.83L480.97 800.71L480.02 799.55L479.11 798.36L478.24 797.13L477.43 795.87L476.66 794.58L475.93 793.25L475.26 791.9L474.65 790.51L474.08 789.1L473.57 787.66L473.11 786.2L472.71 784.71L472.37 783.2L472.09 781.67L471.87 780.12L471.71 778.55L471.61 776.96L471.58 775.36L471.58 735.94L471.59 735.52L471.61 735.11L471.65 734.71L471.71 734.31L471.78 733.91L471.87 733.52L471.97 733.14L472.09 732.76L472.22 732.39L472.37 732.03L472.53 731.67L472.7 731.32L472.88 730.98L473.08 730.65L473.29 730.32L473.52 730L473.75 729.7L474 729.4L474.25 729.11L474.52 728.83L474.8 728.57L475.09 728.31L475.38 728.07L475.69 727.83L476.01 727.61L476.33 727.4L476.67 727.2L477.01 727.01L477.36 726.84L477.71 726.68L478.08 726.54L478.45 726.41L478.83 726.29L479.21 726.19L479.6 726.1L480 726.03L480.4 725.97L480.8 725.93L481.21 725.9L481.63 725.89L482.04 725.9L482.45 725.93L482.85 725.97L483.25 726.03L483.65 726.1L484.04 726.19L484.42 726.29L484.8 726.41L485.17 726.54L485.53 726.68L485.89 726.84L486.24 727.01L486.58 727.2L486.91 727.4L487.24 727.61L487.56 727.83L487.86 728.07L488.16 728.31L488.45 728.57L488.73 728.83L488.99 729.11L489.25 729.4L489.5 729.7L489.73 730L489.95 730.32L490.16 730.65L490.36 730.98L490.55 731.32L490.72 731.67L490.88 732.03L491.02 732.39L491.16 732.76L491.27 733.14L491.38 733.52L491.46 733.91L491.54 734.31L491.59 734.71L491.64 735.11L491.66 735.52L491.67 735.94L491.67 775.36L491.68 776.14L491.73 776.91L491.81 777.67L491.92 778.42L492.05 779.16L492.22 779.89L492.41 780.61L492.63 781.32L492.88 782.02L493.15 782.7L493.45 783.37L493.78 784.03L494.13 784.67L494.5 785.3L494.9 785.91L495.32 786.51L495.76 787.08L496.22 787.64L496.7 788.18L497.2 788.71L497.73 789.21L498.27 789.69L498.83 790.15L499.41 790.59L500 791.01L500.61 791.41L501.24 791.78L501.88 792.13L502.54 792.46L503.21 792.76L503.89 793.03L504.59 793.28L505.3 793.5L506.02 793.69L506.75 793.86L507.49 793.99L508.25 794.1L509.01 794.18L509.78 794.23L510.55 794.24L511.33 794.23L512.1 794.18L512.86 794.1L513.61 793.99L514.36 793.86L515.09 793.69L515.81 793.5L516.52 793.28L517.21 793.03L517.9 792.76L518.57 792.46L519.22 792.13L519.87 791.78L520.49 791.41L521.1 791.01L521.7 790.59L522.28 790.15L522.84 789.69L523.38 789.21L523.9 788.71L524.4 788.18L524.89 787.64L525.35 787.08L525.79 786.51L526.21 785.91L526.6 785.3L526.98 784.67L527.32 784.03L527.65 783.37L527.95 782.7L528.22 782.02L528.47 781.32L528.69 780.61L528.89 779.89L529.05 779.16L529.19 778.42L529.3 777.67L529.37 776.91L529.42 776.14L529.44 775.36L529.44 653.25L529.44 652.84L529.47 652.43L529.51 652.02L529.57 651.62L529.64 651.23L529.73 650.84L529.83 650.46L529.95 650.08L530.08 649.71L530.23 649.34L530.38 648.99L530.56 648.64L530.74 648.29L530.94 647.96L531.15 647.64L531.37 647.32L531.61 647.01L531.85 646.71L532.11 646.43L532.38 646.15L532.66 645.88L532.94 645.62L533.24 645.38L533.55 645.14L533.87 644.92L534.19 644.71L534.52 644.51L534.87 644.33L535.22 644.15L535.57 644L535.94 643.85L536.31 643.72L536.69 643.6L537.07 643.5L537.46 643.41L537.85 643.34L538.25 643.28L538.66 643.24L539.07 643.21L539.48 643.21L686.76 643.21L687.18 643.21L687.59 643.24L687.99 643.28L688.39 643.34L688.79 643.41L689.18 643.5L689.56 643.6L689.94 643.72L690.31 643.85L690.67 644L691.03 644.15L691.38 644.33L691.72 644.51L692.05 644.71L692.38 644.92L692.69 645.14L693 645.38L693.3 645.62L693.59 645.88L693.86 646.15L694.13 646.43L694.39 646.71L694.63 647.01L694.87 647.32L695.09 647.64L695.3 647.96L695.5 648.29L695.69 648.64L695.86 648.99L696.02 649.34L696.16 649.71L696.29 650.08L696.41 650.46L696.52 650.84L696.6 651.23L696.68 651.62L696.73 652.02L696.77 652.43L696.8 652.84L696.81 653.25L696.82 654.41L696.87 655.57L696.95 656.72L697.06 657.87L697.21 659.02L697.39 660.17L697.59 661.31L697.84 662.44L698.11 663.58L698.41 664.71L698.75 665.83L699.12 666.96L699.52 668.08L699.95 669.2L700.42 670.31L700.91 671.42L701.44 672.52L702 673.63L702.59 674.72L703.21 675.82L703.87 676.91L704.56 678L705.28 679.08L706.03 680.16L706.81 681.23L707.62 682.31L708.47 683.37L709.34 684.44L710.25 685.49L711.19 686.55L712.16 687.6L713.16 688.65L714.2 689.69L715.26 690.73L716.36 691.76L717.49 692.79L718.65 693.81L719.84 694.83L721.06 695.85L722.32 696.86L723.32 697.65L724.32 698.42L725.32 699.17L726.32 699.9L727.31 700.61L728.29 701.3L729.27 701.97L730.24 702.63L731.19 703.26L732.14 703.88L733.07 704.47L734 705.05L734.9 705.6L735.79 706.14L736.66 706.65L737.52 707.15L738.35 707.63L739.16 708.09L739.95 708.52L740.72 708.94L741.46 709.34L742.17 709.72L742.86 710.08L743.52 710.42L744.15 710.73L744.75 711.03L745.32 711.31L745.85 711.57L746.35 711.81L746.81 712.03L747.24 712.22L747.62 712.4L747.97 712.56L748.28 712.69L748.54 712.81L748.76 712.91L748.94 712.98L749.07 713.04L749.15 713.07L749.18 713.09L749.46 713.21L749.74 713.33L750.01 713.47L750.28 713.61L750.54 713.76L750.79 713.92L751.04 714.09L751.28 714.26L751.52 714.43L751.75 714.62L751.98 714.81L752.19 715.01L752.41 715.21L752.61 715.42L752.81 715.63L753.01 715.85L753.2 716.08L753.38 716.31L753.55 716.55L753.72 716.79L753.88 717.03L754.03 717.28L754.17 717.54L754.31 717.8L754.44 718.06L754.56 718.33L754.68 718.6L754.79 718.87L754.88 719.15L754.98 719.43L755.06 719.71L755.13 720L755.2 720.29L755.26 720.58L755.31 720.88L755.35 721.17L755.38 721.47L755.4 721.77L755.41 722.08L755.42 722.38L755.42 777.65L755.43 778.34L755.47 779.01L755.54 779.68L755.64 780.34L755.76 780.99L755.9 781.63L756.07 782.27L756.27 782.89L756.48 783.5L756.72 784.1L756.99 784.69L757.27 785.27L757.58 785.83L757.91 786.38L758.26 786.92L758.62 787.44L759.01 787.95L759.42 788.44L759.84 788.92L760.28 789.38L760.74 789.82L761.22 790.24L761.71 790.65L762.22 791.04L762.74 791.4L763.28 791.75L763.83 792.08L764.39 792.39L764.97 792.67L765.56 792.94L766.16 793.18L766.77 793.39L767.39 793.59L768.03 793.76L768.67 793.9L769.32 794.02L769.98 794.12L770.65 794.19L771.33 794.23L772.01 794.24L772.69 794.23L773.37 794.19L774.03 794.12L774.7 794.02L775.35 793.9L775.99 793.76L776.62 793.59L777.25 793.39L777.86 793.18L778.46 792.94L779.05 792.67L779.62 792.39L780.19 792.08L780.74 791.75L781.28 791.4L781.8 791.04L782.31 790.65L782.8 790.24L783.27 789.82L783.73 789.38L784.17 788.92L784.6 788.44L785 787.95L785.39 787.44L785.76 786.92L786.11 786.38L786.44 785.83L786.74 785.27L787.03 784.69L787.29 784.1L787.53 783.5L787.75 782.89L787.94 782.27L788.11 781.63L788.26 780.99L788.38 780.34L788.47 779.68L788.54 779.01L788.58 778.34L788.6 777.65L788.6 654.13L788.6 653.8L788.62 653.47L788.65 653.14L788.68 652.82L788.73 652.5L788.79 652.18L788.86 651.86L788.93 651.55L789.02 651.24L789.12 650.94L789.22 650.64L789.34 650.34L789.46 650.05L789.6 649.76L789.74 649.48L789.89 649.2L790.05 648.93L790.21 648.66L790.39 648.4L790.57 648.14L790.77 647.89L790.97 647.65L791.17 647.41L791.39 647.18L791.61 646.95L791.84 646.74L792.08 646.53L792.32 646.32L792.57 646.13L792.83 645.94L793.09 645.76L793.36 645.58L793.63 645.42L793.92 645.26L794.2 645.11L794.5 644.98L794.8 644.85L795.1 644.73L795.41 644.62L795.73 644.51L795.88 644.46L796.14 644.37L796.51 644.24L796.97 644.07L797.53 643.85L798.18 643.58L798.9 643.26L799.71 642.89L800.59 642.46L801.53 641.99L802.54 641.45L803.6 640.86L804.71 640.2L805.87 639.48L807.07 638.7L808.3 637.85L809.57 636.93L810.85 635.94L812.16 634.88L813.48 633.75L814.81 632.54L816.14 631.25L817.46 629.88L818.79 628.43L820.09 626.89L821.38 625.27L822.65 623.57L823.88 621.77L825.09 619.88L826.25 617.9L827.37 615.82L828.44 613.65L829.45 611.38L830.4 609L831.29 606.53L832.1 603.95L832.84 601.26L833.49 598.47L834.06 595.56L834.54 592.54L834.64 591.78L834.73 591.02L834.82 590.26L834.9 589.5L834.97 588.75L835.03 587.99L835.08 587.24L835.12 586.49L835.16 585.74L835.19 585L835.21 584.26L835.22 583.52L835.22 582.78L835.21 582.04L835.2 581.31L835.18 580.58L835.15 579.85L835.11 579.12L835.06 578.4L835 577.68L834.94 576.96L834.87 576.24L834.79 575.53L834.7 574.81L834.6 574.1L834.5 573.4L834.39 572.69L834.26 571.99L834.13 571.29L834 570.6L833.85 569.9L833.7 569.21L833.53 568.53L833.36 567.84L833.18 567.16L833 566.48L832.8 565.8L832.6 565.13L832.38 564.46L832.16 563.79L832.04 563.4L831.93 563L831.84 562.6L831.77 562.2L831.71 561.81L831.67 561.41L831.64 561.01L831.63 560.62L831.64 560.22L831.66 559.83L831.7 559.44L831.75 559.05L831.82 558.67L831.9 558.29L832 557.92L832.11 557.55L832.23 557.18L832.37 556.82L832.52 556.47L832.68 556.12L832.86 555.77L833.05 555.44L833.26 555.11L833.47 554.79L833.7 554.48L833.94 554.18L834.19 553.88L834.46 553.6L834.73 553.32L835.02 553.06L835.32 552.8L835.63 552.56L835.95 552.33L836.28 552.11L836.62 551.9L836.97 551.71L837.33 551.52L837.71 551.36L838.09 551.2L838.48 551.06L838.87 550.94L839.27 550.83L839.66 550.74L840.06 550.66L840.46 550.61L840.86 550.57L841.25 550.54L841.65 550.53L842.04 550.54L842.43 550.56ZM400.08 133.38L400.69 133.42L401.31 133.48L401.93 133.55L402.54 133.65L403.16 133.75L403.77 133.88L404.38 134.02L404.99 134.17L405.59 134.34L406.2 134.53L406.8 134.73L407.39 134.95L407.98 135.18L408.57 135.43L409.15 135.7L409.73 135.98L410.21 136.23L410.69 136.47L411.17 136.71L411.65 136.96L412.12 137.21L412.6 137.45L413.07 137.7L413.54 137.95L414.01 138.21L414.48 138.46L414.95 138.71L415.42 138.97L415.88 139.22L416.35 139.48L416.81 139.74L417.27 139.99L417.73 140.25L418.19 140.51L418.65 140.78L419.1 141.04L419.56 141.3L420.01 141.57L420.46 141.83L420.91 142.1L421.36 142.37L421.81 142.64L422.26 142.91L422.7 143.18L423.15 143.45L423.59 143.72L424.03 144L424.47 144.27L424.91 144.55L425.35 144.83L425.79 145.1L426.22 145.38L426.66 145.66L427.09 145.94L427.52 146.23L427.95 146.51L428.1 146.18L428.25 145.85L428.41 145.52L428.58 145.2L428.75 144.88L428.92 144.56L429.11 144.24L429.29 143.93L429.48 143.62L429.68 143.32L429.88 143.02L430.09 142.72L430.3 142.42L430.51 142.13L430.74 141.84L430.96 141.55L431.19 141.27L431.43 141L431.67 140.72L431.91 140.45L432.16 140.18L432.42 139.92L432.68 139.66L432.94 139.41L433.21 139.16L433.48 138.91L433.76 138.67L434.04 138.43L434.33 138.2L434.62 137.97L434.91 137.75L435.21 137.53L435.51 137.31L435.82 137.1L436.13 136.9L436.45 136.7L436.77 136.5L437.09 136.31L437.42 136.13L437.75 135.95L438.29 135.67L438.84 135.4L439.4 135.15L439.96 134.92L440.52 134.71L441.09 134.51L441.66 134.32L442.23 134.15L442.81 134L443.39 133.87L443.97 133.74L444.56 133.64L445.15 133.55L445.73 133.48L446.32 133.42L446.91 133.38L447.5 133.36L448.09 133.35L448.68 133.35L449.27 133.38L449.86 133.42L450.45 133.47L451.04 133.54L451.62 133.63L452.21 133.73L452.79 133.84L453.36 133.98L453.94 134.12L454.51 134.29L455.08 134.47L455.64 134.66L456.2 134.87L456.76 135.1L457.31 135.34L457.85 135.6L458.39 135.87L458.92 136.16L459.45 136.47L459.97 136.79L460.48 137.12L461.99 138.15L463.54 139.23L465.13 140.38L466.75 141.59L468.41 142.86L470.1 144.19L471.81 145.58L473.54 147.04L475.28 148.56L477.04 150.14L478.8 151.78L480.57 153.49L482.34 155.27L484.11 157.11L485.86 159.01L487.61 160.98L489.33 163.02L491.04 165.12L492.72 167.29L494.38 169.53L496 171.84L497.58 174.21L499.13 176.65L500.62 179.16L502.07 181.74L503.47 184.39L504.81 187.11L506.09 189.9L507.3 192.76L508.45 195.69L509.52 198.69L510.51 201.76L511.42 204.91L512.25 208.13L512.99 211.42L513.63 214.78L514.18 218.22L514.62 221.73L514.96 225.32L515.19 228.98L516.06 229.59L516.98 230.25L517.96 230.97L518.98 231.73L520.04 232.55L521.15 233.42L522.29 234.35L523.47 235.32L524.67 236.35L525.9 237.43L527.16 238.56L528.43 239.74L529.73 240.98L531.03 242.27L532.35 243.61L533.67 245L534.99 246.44L536.31 247.93L537.63 249.48L538.94 251.08L540.24 252.73L541.52 254.43L542.79 256.18L544.03 257.98L545.25 259.84L546.44 261.74L547.6 263.7L548.72 265.71L549.81 267.77L550.85 269.88L551.85 272.04L552.8 274.25L553.69 276.51L554.53 278.83L555.31 281.19L556.03 283.6L556.68 286.07L557.27 288.59L557.78 291.15L558.21 293.77L558.48 295.67L558.71 297.54L558.9 299.38L559.06 301.18L559.19 302.96L559.29 304.7L559.35 306.42L559.39 308.1L559.39 309.75L559.37 311.37L559.31 312.96L559.24 314.52L559.13 316.05L559 317.54L558.84 319.01L558.67 320.45L558.47 321.86L558.25 323.24L558 324.59L557.74 325.91L557.46 327.21L557.16 328.47L556.85 329.7L556.52 330.91L556.17 332.09L555.81 333.24L555.44 334.36L555.05 335.45L554.66 336.52L554.25 337.56L553.83 338.57L553.41 339.55L552.98 340.5L552.54 341.43L552.09 342.33L551.64 343.21L551.19 344.06L550.73 344.88L550.27 345.67L549.81 346.44L550.24 346.69L550.67 346.95L551.11 347.21L551.55 347.48L551.99 347.76L552.44 348.04L552.89 348.32L553.34 348.62L553.8 348.91L554.26 349.22L554.72 349.53L555.19 349.85L555.65 350.17L556.12 350.5L556.59 350.84L557.07 351.18L557.54 351.53L558.02 351.89L558.5 352.25L558.98 352.62L559.46 353L559.94 353.38L560.42 353.77L560.91 354.17L561.39 354.57L561.87 354.98L562.36 355.4L562.84 355.82L563.33 356.25L563.81 356.69L564.3 357.14L564.78 357.59L565.26 358.05L565.75 358.51L566.23 358.99L566.71 359.47L567.19 359.96L567.67 360.45L568.14 360.96L568.62 361.47L568.89 361.78L569.15 362.1L569.39 362.42L569.62 362.76L569.84 363.1L570.04 363.44L570.22 363.79L570.39 364.15L570.55 364.51L570.69 364.88L570.81 365.25L570.92 365.62L571.01 366L571.09 366.38L571.16 366.76L571.21 367.15L571.25 367.53L571.27 367.92L571.27 368.3L571.26 368.69L571.24 369.07L571.2 369.46L571.15 369.84L571.08 370.22L571 370.6L570.91 370.97L570.79 371.34L570.67 371.71L570.53 372.08L570.37 372.43L570.21 372.79L570.02 373.14L569.82 373.48L569.61 373.81L569.38 374.14L569.14 374.46L568.89 374.78L568.62 375.08L568.33 375.38L568.03 375.66L567.72 375.94L567.4 376.2L567.08 376.44L566.75 376.67L566.41 376.88L566.06 377.08L565.71 377.27L565.35 377.44L564.99 377.59L564.62 377.73L564.25 377.86L563.88 377.97L563.5 378.06L563.12 378.14L562.74 378.21L562.35 378.26L561.97 378.29L561.58 378.31L561.2 378.32L560.81 378.31L560.43 378.29L560.04 378.25L559.66 378.2L559.28 378.13L558.9 378.05L558.53 377.95L558.16 377.84L557.79 377.72L557.42 377.58L557.07 377.42L556.71 377.25L556.36 377.07L556.02 376.87L555.69 376.66L555.36 376.43L555.04 376.19L554.72 375.93L554.42 375.66L554.12 375.38L553.83 375.08L553.05 374.24L552.26 373.43L551.46 372.65L550.66 371.89L549.86 371.16L549.06 370.46L548.25 369.78L547.45 369.13L546.66 368.5L545.87 367.89L545.08 367.31L544.3 366.75L543.54 366.22L542.78 365.71L542.03 365.22L541.29 364.76L540.57 364.32L539.87 363.9L539.18 363.5L538.51 363.12L537.86 362.77L537.23 362.43L536.62 362.12L536.03 361.83L535.47 361.55L534.94 361.3L534.43 361.07L533.95 360.85L533.5 360.65L533.08 360.47L532.7 360.31L532.35 360.17L532.03 360.05L531.75 359.94L531.51 359.85L531.31 359.78L531.14 359.72L531.02 359.68L530.95 359.65L530.92 359.64L530.36 359.44L529.82 359.22L529.3 358.96L528.81 358.69L528.33 358.38L527.88 358.05L527.45 357.71L527.04 357.34L526.65 356.95L526.29 356.54L525.95 356.11L525.64 355.67L525.35 355.22L525.08 354.75L524.84 354.27L524.62 353.78L524.43 353.28L524.26 352.77L524.12 352.25L524.01 351.73L523.92 351.21L523.86 350.68L523.83 350.15L523.83 349.62L523.85 349.08L523.91 348.56L523.99 348.03L524.1 347.51L524.24 346.99L524.41 346.49L524.61 345.99L524.85 345.49L525.11 345.02L525.4 344.55L525.73 344.09L526.09 343.65L526.48 343.23L526.9 342.82L527.36 342.44L527.85 342.07L527.97 341.96L528.13 341.82L528.34 341.63L528.58 341.39L528.86 341.11L529.18 340.78L529.52 340.4L529.89 339.98L530.28 339.5L530.7 338.98L531.13 338.41L531.58 337.78L532.04 337.11L532.51 336.38L532.98 335.6L533.46 334.77L533.94 333.88L534.41 332.93L534.89 331.93L535.35 330.88L535.8 329.76L536.24 328.59L536.66 327.36L537.06 326.07L537.43 324.72L537.79 323.31L538.11 321.83L538.4 320.3L538.65 318.7L538.87 317.03L539.05 315.31L539.18 313.51L539.27 311.65L539.31 309.73L539.29 307.73L539.22 305.67L539.1 303.54L538.91 301.34L538.66 299.07L538.34 296.73L537.9 294.2L537.37 291.72L536.75 289.31L536.04 286.94L535.25 284.64L534.39 282.4L533.46 280.21L532.46 278.08L531.4 276.01L530.29 274L529.14 272.06L527.94 270.17L526.7 268.34L525.44 266.57L524.15 264.86L522.84 263.22L521.52 261.64L520.19 260.12L518.86 258.66L517.53 257.27L516.21 255.94L514.9 254.67L513.62 253.47L512.36 252.34L511.13 251.27L509.94 250.26L508.79 249.32L507.69 248.45L506.64 247.64L505.65 246.9L504.73 246.23L503.88 245.62L503.1 245.08L502.41 244.61L501.8 244.22L501.29 243.88L500.88 243.62L500.57 243.43L500.37 243.31L500.28 243.26L500.05 243.12L499.82 242.98L499.6 242.83L499.38 242.68L499.17 242.52L498.96 242.36L498.76 242.19L498.56 242.01L498.37 241.83L498.18 241.65L497.99 241.46L497.81 241.27L497.64 241.07L497.47 240.87L497.31 240.66L497.15 240.45L497 240.24L496.86 240.02L496.72 239.8L496.58 239.58L496.46 239.35L496.33 239.12L496.22 238.88L496.11 238.65L496 238.41L495.9 238.16L495.81 237.92L495.73 237.67L495.65 237.42L495.57 237.17L495.51 236.91L495.45 236.65L495.4 236.4L495.35 236.13L495.31 235.87L495.28 235.61L495.25 235.34L495.24 235.08L495.23 234.81L495.22 234.54L495.18 231.48L495.04 228.48L494.81 225.53L494.5 222.65L494.11 219.82L493.63 217.05L493.08 214.33L492.46 211.67L491.76 209.07L490.99 206.52L490.16 204.03L489.26 201.59L488.3 199.21L487.28 196.88L486.21 194.6L485.09 192.38L483.91 190.2L482.69 188.08L481.42 186.02L480.11 184L478.76 182.03L477.37 180.12L475.95 178.25L474.5 176.44L473.02 174.67L471.52 172.96L469.99 171.29L468.44 169.66L466.88 168.09L465.3 166.56L463.7 165.08L462.1 163.65L460.49 162.26L458.88 160.92L457.27 159.62L455.65 158.37L454.04 157.16L452.44 156L450.85 154.88L449.27 153.8L449.17 153.74L449.07 153.68L448.97 153.63L448.87 153.59L448.77 153.55L448.66 153.52L448.56 153.5L448.45 153.48L448.35 153.47L448.24 153.46L448.14 153.46L448.03 153.46L447.93 153.47L447.82 153.48L447.72 153.5L447.62 153.53L447.52 153.56L447.42 153.59L447.33 153.63L447.24 153.68L447.15 153.73L447.06 153.78L446.97 153.84L446.89 153.9L446.81 153.97L446.74 154.04L446.67 154.11L446.6 154.19L446.54 154.27L446.48 154.36L446.42 154.45L446.37 154.54L446.33 154.64L446.29 154.74L446.26 154.84L446.23 154.95L446.2 155.05L446.19 155.17L446.18 155.28L446.18 155.4L446.18 229.48L446.17 229.81L446.15 230.14L446.13 230.47L446.09 230.79L446.04 231.11L445.99 231.42L445.92 231.74L445.84 232.05L445.76 232.36L445.66 232.66L445.56 232.96L445.44 233.25L445.32 233.54L445.19 233.83L445.04 234.11L444.9 234.39L444.74 234.66L444.57 234.93L444.4 235.19L444.21 235.44L444.02 235.69L443.82 235.94L443.62 236.18L443.41 236.41L443.19 236.63L442.96 236.85L442.72 237.06L442.48 237.26L442.23 237.46L441.98 237.65L441.72 237.83L441.45 238L441.18 238.17L440.9 238.33L440.61 238.47L440.32 238.61L440.02 238.74L439.72 238.87L439.41 238.98L439.1 239.08L439.07 239.09L439 239.11L438.89 239.15L438.73 239.2L438.54 239.27L438.31 239.35L438.04 239.44L437.74 239.55L437.4 239.67L437.02 239.81L436.62 239.97L436.18 240.13L435.71 240.32L435.2 240.51L434.67 240.73L434.12 240.96L433.53 241.2L432.92 241.46L432.29 241.73L431.63 242.03L430.94 242.33L430.24 242.65L429.51 242.99L428.77 243.35L428 243.72L427.22 244.11L426.42 244.51L425.61 244.93L424.78 245.36L423.93 245.82L423.08 246.29L422.21 246.77L421.33 247.28L420.44 247.8L419.55 248.34L418.64 248.89L417.73 249.46L416.82 250.05L415.89 250.66L414.97 251.28L413.81 252.09L412.67 252.91L411.56 253.73L410.46 254.56L409.4 255.4L408.35 256.25L407.33 257.11L406.33 257.98L405.36 258.85L404.41 259.73L403.48 260.63L402.58 261.52L401.7 262.43L400.84 263.35L400.01 264.27L399.2 265.2L398.41 266.14L397.65 267.09L396.92 268.04L396.2 269.01L395.51 269.98L394.85 270.96L394.2 271.95L393.59 272.94L392.99 273.94L392.42 274.95L391.87 275.97L391.35 277L390.85 278.03L390.38 279.07L389.93 280.12L389.5 281.17L389.1 282.24L388.72 283.31L388.37 284.39L388.04 285.47L387.73 286.57L387.45 287.67L387.19 288.77L386.96 289.89L386.76 290.94L386.59 291.99L386.43 293.03L386.3 294.07L386.19 295.09L386.11 296.11L386.04 297.12L386 298.12L385.98 299.11L385.98 300.09L386 301.07L386.04 302.04L386.11 303L386.2 303.95L386.31 304.9L386.44 305.83L386.6 306.76L386.77 307.68L386.97 308.59L387.19 309.49L387.43 310.39L387.7 311.27L387.98 312.15L388.29 313.02L388.62 313.88L388.97 314.73L389.35 315.58L389.74 316.41L390.16 317.24L390.6 318.06L391.06 318.86L391.54 319.66L392.05 320.46L392.57 321.24L393.12 322.01L393.69 322.78L394.28 323.53L394.9 324.28L395.53 325.02L396.19 325.75L396.72 326.32L397.26 326.87L397.8 327.41L398.35 327.93L398.89 328.44L399.44 328.93L399.98 329.41L400.52 329.87L401.06 330.31L401.6 330.74L402.13 331.16L402.65 331.56L403.18 331.94L403.69 332.31L404.19 332.67L404.69 333.01L405.18 333.33L405.65 333.64L406.12 333.94L406.57 334.22L407.01 334.49L407.44 334.74L407.85 334.98L408.24 335.2L408.62 335.41L408.98 335.61L409.32 335.79L409.65 335.96L409.95 336.11L410.23 336.26L410.49 336.38L410.73 336.5L410.94 336.6L411.13 336.69L411.29 336.76L411.42 336.82L411.53 336.87L411.61 336.9L411.67 336.93L411.69 336.93L412 337.07L412.31 337.21L412.61 337.36L412.9 337.53L413.19 337.7L413.48 337.88L413.75 338.07L414.03 338.26L414.29 338.47L414.55 338.68L414.8 338.9L415.04 339.13L415.27 339.37L415.5 339.61L415.72 339.86L415.93 340.12L416.13 340.38L416.33 340.65L416.51 340.92L416.69 341.2L416.86 341.49L417.02 341.78L417.17 342.07L417.31 342.37L417.44 342.68L417.56 342.98L417.67 343.3L417.76 343.61L417.85 343.93L417.93 344.25L418 344.58L418.05 344.91L418.1 345.24L418.13 345.57L418.15 345.91L418.16 346.24L418.16 346.58L418.14 346.92L418.12 347.26L418.08 347.6L418.03 347.92L417.97 348.24L417.9 348.55L417.82 348.86L417.74 349.17L417.64 349.47L417.53 349.77L417.42 350.07L417.29 350.36L417.16 350.64L417.02 350.93L416.87 351.2L416.71 351.47L416.55 351.74L416.38 352L416.19 352.25L416.01 352.5L415.81 352.74L415.61 352.98L415.4 353.21L415.18 353.43L414.95 353.65L414.72 353.86L414.49 354.06L414.24 354.25L413.99 354.44L413.74 354.62L413.47 354.79L413.21 354.95L412.93 355.1L412.65 355.24L412.37 355.38L412.08 355.5L411.78 355.62L411.49 355.73L411.18 355.82L410.87 355.91L410.56 355.99L410.24 356.06L409.92 356.11L409.79 356.15L409.61 356.2L409.39 356.27L409.12 356.35L408.81 356.46L408.47 356.59L408.08 356.74L407.66 356.91L407.19 357.11L406.7 357.33L406.17 357.59L405.6 357.87L405.01 358.19L404.38 358.53L403.72 358.91L403.04 359.33L402.33 359.78L401.59 360.27L400.83 360.79L400.05 361.36L399.24 361.97L398.41 362.63L397.57 363.33L396.7 364.07L395.82 364.86L394.92 365.71L394.01 366.6L393.09 367.54L392.15 368.54L391.2 369.59L390.24 370.7L389.28 371.86L388.3 373.09L387.32 374.37L386.34 375.72L385.35 377.13L384.36 378.6L383.37 380.14L382.38 381.74L381.39 383.42L380.47 385.12L379.66 386.82L378.95 388.52L378.34 390.22L377.83 391.92L377.42 393.61L377.09 395.3L376.84 396.97L376.68 398.63L376.58 400.28L376.56 401.91L376.61 403.51L376.71 405.1L376.87 406.66L377.08 408.19L377.34 409.69L377.64 411.16L377.99 412.6L378.36 413.99L378.76 415.35L379.19 416.67L379.64 417.94L380.11 419.17L380.58 420.34L381.07 421.47L381.55 422.54L382.03 423.55L382.51 424.51L382.98 425.4L383.43 426.23L383.86 427L384.26 427.7L384.64 428.32L384.98 428.87L385.28 429.35L385.54 429.75L385.76 430.07L385.92 430.3L386.03 430.45L386.07 430.52L386.24 430.75L386.4 431L386.56 431.24L386.71 431.49L386.84 431.74L386.98 431.99L387.1 432.25L387.22 432.51L387.33 432.77L387.43 433.04L387.52 433.3L387.61 433.57L387.68 433.84L387.75 434.12L387.82 434.39L387.87 434.67L387.92 434.94L387.96 435.22L387.99 435.5L388.01 435.78L388.03 436.06L388.04 436.34L388.04 436.62L388.03 436.9L388.01 437.19L387.99 437.47L387.96 437.75L387.92 438.03L387.87 438.3L387.82 438.58L387.75 438.86L387.68 439.13L387.6 439.41L387.52 439.68L387.42 439.95L387.32 440.22L387.21 440.48L387.09 440.75L386.96 441.01L386.83 441.27L386.79 441.34L386.7 441.52L386.55 441.8L386.37 442.18L386.14 442.65L385.87 443.22L385.57 443.88L385.23 444.63L384.87 445.46L384.48 446.37L384.07 447.36L383.64 448.42L383.2 449.56L382.75 450.77L382.3 452.05L381.84 453.39L381.38 454.79L380.92 456.25L380.48 457.76L380.04 459.33L379.62 460.94L379.22 462.61L378.84 464.31L378.48 466.06L378.16 467.84L377.86 469.66L377.61 471.52L377.39 473.4L377.22 475.31L377.09 477.24L377.01 479.19L376.99 481.16L377.03 483.14L377.13 485.14L377.29 487.14L377.52 489.15L377.82 491.16L378.2 493.18L378.66 495.19L379.2 497.19L379.81 499.12L380.49 501L381.25 502.83L382.07 504.61L382.95 506.34L383.89 508.02L384.89 509.65L385.93 511.23L387.01 512.76L388.13 514.24L389.29 515.67L390.47 517.06L391.68 518.39L392.9 519.68L394.14 520.91L395.39 522.1L396.65 523.24L397.91 524.33L399.16 525.37L400.4 526.36L401.63 527.31L402.84 528.2L404.03 529.05L405.19 529.85L406.32 530.6L407.41 531.3L408.46 531.95L409.46 532.56L410.41 533.11L411.3 533.62L412.14 534.09L412.9 534.5L413.6 534.86L414.23 535.18L414.77 535.45L415.23 535.68L415.6 535.85L415.88 535.98L416.05 536.06L416.13 536.09L416.5 536.26L416.85 536.44L417.2 536.63L417.54 536.83L417.87 537.05L418.18 537.28L418.49 537.51L418.78 537.76L419.07 538.02L419.34 538.29L419.61 538.57L419.86 538.85L420.1 539.15L420.32 539.45L420.54 539.77L420.74 540.08L420.94 540.41L421.11 540.74L421.28 541.08L421.43 541.43L421.58 541.78L421.7 542.13L421.82 542.49L421.92 542.85L422.01 543.22L422.08 543.59L422.14 543.97L422.19 544.35L422.22 544.73L422.23 545.11L422.24 545.49L422.22 545.87L422.2 546.26L422.15 546.64L422.1 547.03L422.02 547.41L421.93 547.8L421.83 548.18L421.71 548.56L421.57 548.94L421.53 549.04L421.45 549.28L421.32 549.66L421.15 550.17L420.94 550.81L420.71 551.57L420.44 552.45L420.16 553.44L419.86 554.55L419.55 555.76L419.23 557.08L418.9 558.49L418.58 559.99L418.27 561.58L417.96 563.26L417.67 565.02L417.4 566.85L417.16 568.75L416.94 570.72L416.76 572.75L416.62 574.84L416.52 576.99L416.47 579.18L416.47 581.42L416.52 583.69L416.64 586.01L416.83 588.35L417.08 590.73L417.41 593.12L417.82 595.54L418.32 597.97L418.9 600.41L419.58 602.85L420.36 605.29L421.24 607.74L422.22 610.17L423.32 612.59L424.54 615L425.87 617.38L427.34 619.74L428.81 621.9L430.32 623.93L431.87 625.83L433.45 627.6L435.07 629.26L436.71 630.81L438.37 632.24L440.05 633.57L441.74 634.79L443.45 635.91L445.16 636.94L446.87 637.88L448.58 638.73L450.28 639.5L451.98 640.18L453.66 640.79L455.32 641.33L456.96 641.8L458.58 642.21L460.16 642.56L461.71 642.85L463.23 643.09L464.7 643.28L466.13 643.43L467.51 643.53L468.83 643.6L470.1 643.64L471.3 643.65L472.44 643.63L473.51 643.59L474.51 643.54L475.43 643.47L476.26 643.39L477.01 643.31L477.68 643.23L478.25 643.15L478.72 643.07L479.09 643.01L479.35 642.96L479.51 642.93L479.97 642.85L480.43 642.78L480.89 642.74L481.34 642.72L481.79 642.73L482.24 642.75L482.69 642.79L483.13 642.86L483.57 642.94L484 643.04L484.42 643.16L484.84 643.3L485.25 643.45L485.66 643.63L486.05 643.82L486.44 644.02L486.82 644.24L487.19 644.48L487.54 644.73L487.89 645L488.23 645.28L488.55 645.58L488.86 645.89L489.16 646.21L489.44 646.54L489.71 646.89L489.96 647.25L490.2 647.61L490.43 647.99L490.63 648.38L490.82 648.78L490.99 649.19L491.15 649.61L491.28 650.04L491.4 650.47L491.49 650.91L491.57 651.36L491.62 651.82L491.66 652.28L491.67 652.75L491.67 695.75L491.66 696.17L491.64 696.58L491.59 696.98L491.54 697.38L491.46 697.78L491.38 698.17L491.27 698.55L491.16 698.93L491.02 699.3L490.88 699.66L490.72 700.02L490.55 700.37L490.36 700.71L490.16 701.05L489.95 701.37L489.73 701.69L489.5 701.99L489.25 702.29L488.99 702.58L488.73 702.86L488.45 703.12L488.16 703.38L487.86 703.63L487.55 703.86L487.24 704.08L486.91 704.29L486.58 704.49L486.24 704.68L485.89 704.85L485.53 705.01L485.17 705.15L484.8 705.29L484.42 705.4L484.03 705.51L483.64 705.59L483.25 705.67L482.85 705.72L482.44 705.76L482.03 705.79L481.62 705.8L481.34 705.79L481.07 705.77L480.79 705.74L480.52 705.7L480.25 705.64L479.98 705.57L479.71 705.49L479.44 705.4L479.18 705.29L478.91 705.17L478.65 705.04L478.39 704.89L478.13 704.74L477.87 704.57L477.61 704.38L477.35 704.19L477.1 703.98L476.84 703.76L476.59 703.53L476.34 703.29L476.09 703.03L475.84 702.76L475.59 702.48L475.34 702.18L475.1 701.87L474.85 701.55L474.61 701.22L474.37 700.88L474.13 700.52L473.89 700.15L473.65 699.77L473.42 699.37L473.18 698.96L472.95 698.54L472.71 698.11L472.48 697.66L472.25 697.2L472.02 696.73L471.8 696.25L471.57 695.75L471.57 663.72L470.39 663.72L469.16 663.7L467.9 663.66L466.59 663.6L465.26 663.51L463.89 663.4L462.48 663.26L461.05 663.09L459.59 662.89L458.1 662.65L456.59 662.37L455.06 662.06L453.51 661.71L451.93 661.32L450.35 660.89L448.74 660.41L447.12 659.88L445.49 659.31L443.86 658.68L442.21 658.01L440.56 657.28L438.9 656.49L437.24 655.65L435.58 654.74L433.93 653.78L432.27 652.75L430.62 651.66L428.98 650.5L427.35 649.27L425.73 647.97L424.12 646.6L422.52 645.16L420.94 643.63L419.38 642.04L417.84 640.36L416.32 638.6L414.82 636.76L413.35 634.83L411.91 632.81L410.5 630.71L409.06 628.43L407.72 626.14L406.47 623.84L405.31 621.53L404.22 619.21L403.22 616.89L402.3 614.57L401.46 612.24L400.69 609.92L399.99 607.6L399.36 605.29L398.8 602.99L398.3 600.69L397.86 598.41L397.48 596.15L397.16 593.9L396.89 591.67L396.68 589.46L396.52 587.27L396.4 585.11L396.32 582.97L396.29 580.87L396.3 578.79L396.35 576.75L396.43 574.75L396.54 572.78L396.68 570.86L396.85 568.97L397.05 567.13L397.27 565.34L397.5 563.59L397.76 561.9L398.03 560.25L398.31 558.67L398.61 557.14L398.91 555.66L399.21 554.25L399.52 552.9L399.83 551.62L400.14 550.41L399.24 549.88L398.31 549.32L397.35 548.73L396.36 548.11L395.34 547.45L394.3 546.76L393.24 546.04L392.15 545.29L391.05 544.5L389.94 543.68L388.81 542.83L387.67 541.94L386.52 541.02L385.36 540.06L384.2 539.07L383.04 538.05L381.87 536.99L380.71 535.9L379.55 534.77L378.4 533.61L377.26 532.41L376.12 531.18L375 529.92L373.89 528.61L372.8 527.27L371.73 525.9L370.68 524.49L369.65 523.04L368.65 521.56L367.68 520.04L366.73 518.49L365.82 516.9L364.94 515.27L364.09 513.6L363.29 511.9L362.52 510.16L361.8 508.38L361.12 506.56L360.49 504.71L359.91 502.82L359.46 501.2L359.04 499.58L358.67 497.96L358.34 496.35L358.04 494.73L357.79 493.13L357.56 491.52L357.37 489.92L357.22 488.33L357.09 486.74L357 485.16L356.94 483.58L356.9 482.02L356.9 480.47L356.92 478.92L356.96 477.39L357.04 475.87L357.13 474.36L357.25 472.87L357.39 471.39L357.55 469.92L357.73 468.47L357.93 467.04L358.15 465.62L358.38 464.22L358.63 462.84L358.89 461.48L359.17 460.14L359.46 458.82L359.76 457.52L360.07 456.25L360.38 455L360.71 453.77L361.05 452.56L361.39 451.39L361.73 450.24L362.08 449.11L362.43 448.01L362.78 446.95L363.14 445.91L356.27 445.51L349.57 445.04L343.04 444.52L336.68 443.93L330.5 443.28L324.49 442.56L318.65 441.78L312.98 440.94L307.49 440.04L302.16 439.07L297.01 438.04L292.04 436.95L287.23 435.79L282.6 434.58L278.15 433.3L273.86 431.95L269.75 430.55L265.82 429.08L262.05 427.55L258.46 425.96L255.05 424.3L251.81 422.58L248.74 420.8L245.85 418.96L243.13 417.06L240.59 415.09L238.22 413.06L236.02 410.97L234 408.82L232.16 406.61L230.49 404.33L229 402L227.68 399.6L226.54 397.14L225.57 394.61L224.78 392.03L224.16 389.39L223.72 386.68L223.45 383.91L223.37 381.08L223.43 378.37L223.61 375.65L223.91 372.93L224.33 370.21L224.88 367.49L225.54 364.76L226.33 362.04L227.23 359.31L228.26 356.58L229.4 353.84L230.67 351.11L232.05 348.37L233.56 345.63L235.19 342.9L236.93 340.15L238.8 337.41L240.78 334.67L242.89 331.93L245.11 329.18L247.45 326.44L249.92 323.69L252.5 320.94L255.2 318.19L258.02 315.45L260.96 312.7L264.02 309.95L267.19 307.2L270.49 304.45L273.9 301.7L277.44 298.95L281.09 296.2L284.86 293.46L288.75 290.71L292.75 287.96L296.88 285.21L301.12 282.47L305.48 279.72L309.96 276.98L314.55 274.23L319.27 271.49L320.67 270.69L322.07 269.89L323.47 269.1L324.87 268.32L326.27 267.54L327.67 266.76L329.08 265.99L330.48 265.23L331.88 264.47L333.28 263.72L334.68 262.97L336.08 262.23L337.48 261.49L338.88 260.76L340.27 260.03L341.67 259.31L343.06 258.59L344.45 257.88L345.83 257.18L347.22 256.48L348.6 255.79L349.97 255.1L351.35 254.42L352.72 253.74L354.09 253.07L355.45 252.41L356.81 251.75L358.16 251.1L359.51 250.45L360.85 249.81L362.19 249.17L363.53 248.54L364.86 247.92L366.18 247.3L367.49 246.69L368.8 246.09L370.11 245.49L371.4 244.89L372.69 244.31L373.98 243.72L373.98 158.07L373.99 157.43L374.01 156.78L374.05 156.14L374.11 155.51L374.18 154.87L374.27 154.25L374.37 153.62L374.49 153L374.63 152.39L374.78 151.78L374.94 151.17L375.12 150.57L375.32 149.98L375.53 149.39L375.75 148.81L375.99 148.24L376.25 147.67L376.52 147.11L376.8 146.56L377.09 146.01L377.4 145.47L377.73 144.94L378.06 144.42L378.41 143.91L378.78 143.4L379.15 142.9L379.54 142.42L379.94 141.94L380.36 141.47L380.79 141.01L381.23 140.57L381.68 140.13L382.15 139.7L382.62 139.28L383.11 138.88L383.61 138.49L384.12 138.1L384.65 137.73L385.18 137.37L385.73 137.03L386.28 136.7L386.84 136.38L387.41 136.08L387.98 135.79L388.55 135.52L389.13 135.27L389.72 135.03L390.3 134.81L390.9 134.6L391.49 134.41L392.09 134.23L392.7 134.07L393.3 133.93L393.91 133.8L394.52 133.69L395.13 133.59L395.75 133.51L396.36 133.44L396.98 133.39L397.6 133.36L398.22 133.34L398.84 133.33L399.46 133.35L400.08 133.38ZM579.38 394.82L579.77 394.86L580.16 394.92L580.55 394.99L580.93 395.08L581.3 395.18L581.67 395.29L582.04 395.42L582.4 395.56L582.75 395.72L583.1 395.89L583.44 396.07L583.77 396.27L584.1 396.48L584.42 396.7L584.72 396.93L585.02 397.17L585.31 397.43L585.59 397.69L585.86 397.97L586.12 398.26L586.37 398.56L586.61 398.87L586.84 399.19L587.05 399.52L587.25 399.85L587.44 400.2L587.62 400.56L587.78 400.92L587.93 401.29L588.06 401.68L588.18 402.07L588.29 402.46L588.37 402.87L588.57 403.88L588.76 404.9L588.94 405.9L589.11 406.91L589.28 407.9L589.43 408.89L589.57 409.88L589.71 410.85L589.83 411.83L589.95 412.79L590.06 413.75L590.16 414.7L590.26 415.65L590.34 416.59L590.42 417.52L590.49 418.45L590.56 419.36L590.61 420.27L590.66 421.18L590.71 422.07L590.74 422.96L590.77 423.84L590.8 424.72L590.81 425.58L590.83 426.44L590.83 427.29L590.83 428.13L590.83 428.96L590.82 429.78L590.8 430.6L590.78 431.4L590.76 432.2L590.73 432.99L590.69 433.77L590.66 434.53L590.61 435.29L590.57 436.05L590.52 436.79L590.46 437.52L590.41 438.24L591.52 437.81L592.66 437.39L593.82 436.96L595.02 436.54L596.24 436.13L597.48 435.72L598.76 435.32L600.05 434.92L601.37 434.53L602.72 434.15L604.09 433.79L605.48 433.43L606.9 433.08L608.34 432.75L609.81 432.42L611.29 432.12L612.8 431.82L614.33 431.55L615.88 431.29L617.45 431.04L619.04 430.82L620.66 430.62L622.29 430.43L623.94 430.27L625.61 430.12L627.3 430.01L629.01 429.91L630.74 429.84L632.48 429.79L634.24 429.77L636.02 429.78L637.82 429.81L639.63 429.88L641.46 429.97L643.3 430.1L645.16 430.25L647.03 430.44L648.92 430.66L650.82 430.91L652.74 431.2L655.04 431.59L657.29 432.02L659.49 432.48L661.63 432.97L663.72 433.5L665.76 434.05L667.75 434.63L669.69 435.24L671.58 435.88L673.42 436.54L675.21 437.22L676.96 437.92L678.65 438.65L680.3 439.39L681.9 440.15L683.46 440.92L684.97 441.71L686.43 442.52L687.85 443.33L689.23 444.16L690.56 444.99L691.85 445.84L693.1 446.68L694.3 447.54L695.47 448.39L696.59 449.25L697.67 450.11L698.72 450.97L699.72 451.83L700.68 452.68L701.61 453.53L702.5 454.38L703.35 455.21L704.17 456.04L704.95 456.85L705.69 457.66L706.4 458.45L707.07 459.23L707.71 459.99L708.32 460.73L709.48 460.16L710.71 459.58L712 458.99L713.35 458.39L714.75 457.79L716.21 457.19L717.73 456.59L719.3 455.99L720.93 455.4L722.6 454.82L724.32 454.25L726.09 453.7L727.9 453.17L729.76 452.67L731.66 452.18L733.6 451.73L735.58 451.31L737.6 450.92L739.65 450.57L741.74 450.26L743.86 449.99L746.01 449.76L748.19 449.59L750.4 449.47L752.64 449.4L754.9 449.39L757.18 449.44L759.49 449.55L761.81 449.73L764.15 449.98L766.52 450.3L768.89 450.7L771.28 451.17L773.68 451.73L776.09 452.37L778.51 453.1L780.94 453.92L783.38 454.83L785.81 455.83L788.26 456.94L791.48 458.56L794.52 460.27L797.4 462.08L800.11 463.97L802.65 465.95L805.04 467.99L807.28 470.09L809.38 472.25L811.33 474.46L813.14 476.71L814.82 479L816.37 481.31L817.81 483.65L819.12 485.99L820.32 488.35L821.42 490.71L822.41 493.06L823.3 495.39L824.1 497.7L824.81 499.99L825.44 502.24L825.99 504.45L826.47 506.6L826.88 508.71L827.23 510.74L827.51 512.71L827.75 514.6L827.93 516.41L828.07 518.12L828.17 519.74L828.24 521.25L828.28 522.65L828.29 523.92L828.28 525.07L828.26 526.09L828.23 526.97L828.19 527.7L828.16 528.27L828.13 528.68L828.11 528.92L828.06 529.33L827.99 529.74L827.91 530.14L827.82 530.53L827.7 530.92L827.58 531.3L827.43 531.68L827.28 532.04L827.11 532.4L826.92 532.75L826.72 533.1L826.51 533.43L826.29 533.75L826.05 534.07L825.81 534.37L825.55 534.67L825.28 534.96L825 535.23L824.71 535.49L824.41 535.75L824.1 535.99L823.78 536.22L823.46 536.43L823.12 536.64L822.78 536.83L822.43 537.01L822.07 537.18L821.71 537.33L821.34 537.46L820.96 537.59L820.58 537.7L820.2 537.79L819.81 537.87L819.41 537.93L819.01 537.98L818.61 538.01L818.2 538.02L817.79 538.02L817.38 538L816.97 537.96L816.57 537.9L816.18 537.83L815.79 537.75L815.41 537.65L815.03 537.53L814.66 537.4L814.3 537.26L813.94 537.1L813.59 536.93L813.25 536.75L812.92 536.55L812.59 536.34L812.28 536.12L811.97 535.89L811.67 535.65L811.38 535.4L811.11 535.13L810.84 534.86L810.58 534.57L810.33 534.28L810.1 533.98L809.87 533.67L809.66 533.35L809.46 533.02L809.27 532.69L809.09 532.35L808.93 532L808.78 531.65L808.64 531.29L808.52 530.92L808.41 530.55L808.31 530.17L808.23 529.79L808.17 529.41L808.12 529.02L808.08 528.63L808.06 528.23L808.06 527.83L808.07 527.43L808.1 527.03L808.12 526.86L808.14 526.56L808.16 526.15L808.18 525.62L808.2 524.98L808.21 524.25L808.21 523.41L808.2 522.49L808.16 521.47L808.11 520.38L808.03 519.21L807.93 517.96L807.79 516.65L807.62 515.28L807.41 513.86L807.15 512.38L806.86 510.85L806.51 509.29L806.11 507.69L805.66 506.06L805.14 504.41L804.57 502.74L803.93 501.05L803.22 499.35L802.44 497.65L801.58 495.94L800.64 494.25L799.62 492.56L798.51 490.9L797.31 489.25L796.02 487.63L794.64 486.04L793.15 484.49L791.56 482.98L789.86 481.52L788.06 480.11L786.14 478.76L784.1 477.47L781.94 476.24L779.66 475.1L777.16 473.99L774.65 473.02L772.15 472.18L769.65 471.47L767.15 470.88L764.67 470.41L762.19 470.05L759.74 469.79L757.3 469.63L754.89 469.56L752.5 469.58L750.15 469.68L747.82 469.86L745.54 470.11L743.3 470.42L741.1 470.8L738.95 471.22L736.85 471.69L734.8 472.2L732.81 472.75L730.89 473.33L729.03 473.93L727.24 474.55L725.52 475.19L723.87 475.83L722.31 476.47L720.83 477.11L719.43 477.74L718.12 478.35L716.91 478.94L715.79 479.5L714.78 480.03L713.86 480.52L713.06 480.97L712.36 481.36L711.78 481.7L711.31 481.98L710.97 482.19L710.75 482.33L710.66 482.39L710.27 482.63L709.88 482.85L709.48 483.05L709.08 483.23L708.67 483.4L708.26 483.54L707.84 483.66L707.42 483.77L707 483.85L706.57 483.92L706.14 483.97L705.72 484L705.29 484.01L704.86 484L704.44 483.98L704.01 483.94L703.59 483.88L703.17 483.8L702.75 483.71L702.34 483.6L701.94 483.48L701.54 483.33L701.14 483.17L700.75 483L700.37 482.81L700 482.6L699.63 482.38L699.28 482.14L698.93 481.89L698.6 481.62L698.27 481.34L697.96 481.04L697.66 480.72L697.38 480.4L697.1 480.06L696.84 479.7L696.6 479.33L696.37 478.95L696.16 478.56L695.96 478.15L695.91 478.05L695.83 477.89L695.7 477.65L695.53 477.36L695.32 477L695.07 476.58L694.77 476.11L694.42 475.58L694.02 475.01L693.58 474.39L693.08 473.73L692.52 473.04L691.92 472.3L691.25 471.54L690.53 470.74L689.75 469.92L688.91 469.08L688.01 468.22L687.04 467.34L686.01 466.45L684.92 465.55L683.75 464.65L682.52 463.74L681.22 462.83L679.84 461.93L678.39 461.04L676.87 460.15L675.26 459.28L673.59 458.42L671.83 457.59L669.99 456.77L668.07 455.99L666.06 455.23L663.97 454.51L661.8 453.82L659.53 453.18L657.18 452.57L654.73 452.01L652.19 451.51L649.56 451.05L646.77 450.65L644.01 450.33L641.28 450.11L638.6 449.96L635.95 449.89L633.34 449.9L630.78 449.97L628.26 450.11L625.78 450.31L623.36 450.57L620.99 450.88L618.66 451.24L616.4 451.65L614.19 452.09L612.03 452.57L609.94 453.09L607.91 453.63L605.95 454.19L604.04 454.78L602.21 455.38L600.45 455.99L598.76 456.61L597.14 457.24L595.6 457.86L594.13 458.48L592.75 459.09L591.44 459.68L590.22 460.26L589.09 460.82L588.04 461.35L587.08 461.85L586.21 462.32L585.43 462.75L584.75 463.14L584.16 463.48L583.67 463.77L583.28 464.01L583 464.19L582.82 464.3L582.74 464.35L582.47 464.53L582.2 464.69L581.92 464.85L581.63 464.99L581.34 465.13L581.05 465.26L580.76 465.37L580.46 465.48L580.16 465.58L579.86 465.67L579.55 465.75L579.25 465.82L578.94 465.88L578.63 465.93L578.32 465.97L578.01 466L577.69 466.02L577.38 466.03L577.07 466.03L576.75 466.03L576.44 466.01L576.13 465.98L575.82 465.95L575.51 465.9L575.2 465.85L574.89 465.78L574.59 465.71L574.28 465.63L573.98 465.54L573.69 465.43L573.39 465.32L573.1 465.2L572.81 465.07L572.53 464.93L572.25 464.78L571.97 464.63L571.7 464.46L571.43 464.28L571.17 464.1L570.91 463.9L570.67 463.7L570.44 463.5L570.21 463.29L569.99 463.07L569.78 462.85L569.57 462.62L569.38 462.38L569.19 462.14L569 461.9L568.83 461.65L568.66 461.39L568.5 461.13L568.35 460.87L568.21 460.6L568.08 460.33L567.95 460.05L567.83 459.77L567.72 459.49L567.62 459.21L567.53 458.92L567.45 458.63L567.37 458.33L567.3 458.04L567.25 457.74L567.2 457.44L567.16 457.14L567.13 456.84L567.1 456.54L567.09 456.23L567.09 455.93L567.09 455.62L567.11 455.32L567.13 455.01L567.17 454.71L567.21 454.41L567.26 454.1L567.32 453.8L567.4 453.5L567.48 453.2L567.57 452.9L567.59 452.85L567.62 452.73L567.68 452.53L567.75 452.27L567.85 451.94L567.95 451.53L568.07 451.07L568.2 450.53L568.34 449.93L568.49 449.27L568.65 448.55L568.81 447.77L568.97 446.93L569.14 446.03L569.31 445.08L569.47 444.07L569.63 443L569.79 441.89L569.94 440.72L570.08 439.51L570.21 438.24L570.33 436.93L570.44 435.58L570.53 434.18L570.61 432.73L570.67 431.25L570.71 429.72L570.72 428.16L570.72 426.55L570.69 424.92L570.63 423.24L570.55 421.53L570.43 419.79L570.29 418.02L570.11 416.22L569.9 414.39L569.65 412.53L569.36 410.65L569.03 408.74L568.67 406.81L568.59 406.4L568.54 405.99L568.5 405.59L568.48 405.19L568.47 404.78L568.48 404.38L568.51 403.99L568.55 403.59L568.6 403.2L568.68 402.82L568.76 402.44L568.86 402.06L568.98 401.69L569.11 401.32L569.25 400.96L569.41 400.61L569.58 400.26L569.76 399.92L569.95 399.59L570.16 399.26L570.38 398.95L570.61 398.64L570.86 398.34L571.11 398.05L571.38 397.77L571.66 397.5L571.95 397.24L572.24 396.99L572.55 396.75L572.87 396.53L573.2 396.31L573.54 396.11L573.89 395.92L574.24 395.75L574.61 395.58L574.98 395.43L575.36 395.3L575.75 395.18L576.15 395.07L576.55 394.98L576.96 394.91L577.37 394.86L577.78 394.82L578.18 394.79L578.58 394.79L578.98 394.8L579.38 394.82ZM365.13 270L360.32 272.36L355.52 274.77L350.73 277.22L345.96 279.72L341.22 282.26L336.51 284.84L331.85 287.46L327.23 290.11L322.67 292.81L318.16 295.54L313.73 298.3L309.36 301.1L305.08 303.93L300.88 306.79L296.78 309.68L292.78 312.6L288.88 315.54L285.1 318.51L281.44 321.5L277.91 324.51L274.5 327.55L271.24 330.6L268.13 333.67L265.16 336.76L262.36 339.87L259.72 342.99L257.26 346.12L254.98 349.27L252.88 352.42L250.97 355.59L249.27 358.76L247.77 361.94L246.48 365.12L245.41 368.31L244.57 371.5L243.96 374.69L243.59 377.89L243.46 381.08L243.54 382.88L243.78 384.65L244.18 386.39L244.73 388.1L245.44 389.77L246.31 391.41L247.32 393.02L248.5 394.6L249.82 396.14L251.29 397.65L252.92 399.13L254.69 400.57L256.62 401.98L258.69 403.35L260.9 404.68L263.27 405.98L265.77 407.25L268.42 408.48L271.21 409.67L274.15 410.82L277.22 411.94L280.44 413.02L283.79 414.06L287.28 415.06L290.91 416.03L294.68 416.96L298.58 417.84L302.61 418.69L306.77 419.5L311.07 420.26L315.5 420.99L320.06 421.68L324.75 422.32L329.57 422.93L334.51 423.49L339.58 424.01L344.78 424.49L350.1 424.92L355.54 425.31L361.11 425.66L360.73 424.65L360.36 423.62L360 422.57L359.66 421.49L359.32 420.4L358.99 419.28L358.68 418.15L358.38 416.99L358.1 415.82L357.84 414.63L357.59 413.42L357.37 412.19L357.17 410.95L356.98 409.69L356.82 408.42L356.69 407.13L356.58 405.83L356.5 404.52L356.45 403.19L356.42 401.85L356.43 400.5L356.47 399.14L356.54 397.76L356.65 396.38L356.79 394.99L356.97 393.58L357.18 392.17L357.44 390.76L357.74 389.33L358.07 387.9L358.45 386.46L358.88 385.02L359.35 383.57L359.86 382.12L360.42 380.67L361.04 379.21L361.7 377.75L362.41 376.29L363.18 374.82L364 373.36L364.59 372.34L365.19 371.34L365.79 370.36L366.39 369.4L366.99 368.45L367.6 367.52L368.2 366.61L368.81 365.72L369.42 364.85L370.02 363.99L370.63 363.15L371.24 362.33L371.85 361.52L372.46 360.73L373.07 359.96L373.67 359.2L374.28 358.46L374.89 357.74L375.5 357.03L376.1 356.34L376.7 355.66L377.31 355L377.91 354.35L378.51 353.72L379.11 353.1L379.7 352.5L380.29 351.91L380.89 351.33L381.47 350.77L382.06 350.23L382.64 349.69L383.22 349.17L383.8 348.67L384.37 348.17L384.94 347.7L385.51 347.23L386.07 346.77L386.63 346.33L387.18 345.9L387.73 345.49L386.71 344.61L385.7 343.71L384.7 342.77L383.71 341.81L382.72 340.81L381.75 339.78L380.8 338.72L379.85 337.63L378.93 336.51L378.02 335.35L377.13 334.17L376.27 332.95L375.42 331.71L374.61 330.43L373.81 329.12L373.05 327.77L372.32 326.4L371.61 324.99L370.94 323.56L370.31 322.09L369.71 320.59L369.14 319.05L368.62 317.49L368.14 315.89L367.7 314.27L367.3 312.61L366.95 310.92L366.65 309.19L366.39 307.44L366.19 305.65L366.03 303.83L365.93 301.98L365.89 300.09L365.9 298.18L365.97 296.23L366.1 294.25L366.29 292.23L366.55 290.19L366.87 288.11L367.25 286L367.37 285.43L367.49 284.86L367.61 284.3L367.74 283.74L367.87 283.18L368 282.62L368.14 282.07L368.29 281.52L368.43 280.98L368.59 280.43L368.74 279.89L368.9 279.35L369.06 278.82L369.23 278.28L369.4 277.76L369.57 277.23L369.75 276.7L369.93 276.18L370.12 275.67L370.3 275.15L370.5 274.64L370.69 274.13L370.89 273.62L371.09 273.12L371.3 272.61L371.5 272.12L371.72 271.62L371.93 271.13L372.15 270.64L372.37 270.15L372.59 269.66L372.82 269.18L373.05 268.7L373.29 268.22L373.52 267.75L373.76 267.28L374 266.81L374.25 266.34L374.5 265.88L374.75 265.42L369.94 267.68L365.13 270ZM329.46 315.19L330.64 315.39L331.78 315.68L332.91 316.04L334 316.47L335.06 316.98L336.1 317.56L337.1 318.2L338.06 318.91L338.99 319.68L339.88 320.52L340.73 321.41L341.54 322.36L342.3 323.36L343.02 324.42L343.69 325.52L344.31 326.67L344.88 327.87L345.4 329.11L345.86 330.4L346.27 331.72L346.62 333.08L346.91 334.47L347.14 335.9L347.31 337.35L347.41 338.84L347.44 340.35L347.41 341.86L347.31 343.34L347.14 344.8L346.91 346.22L346.62 347.61L346.27 348.97L345.86 350.3L345.4 351.58L344.88 352.82L344.31 354.02L343.69 355.17L343.02 356.28L342.3 357.33L341.54 358.34L340.73 359.29L339.88 360.18L338.99 361.01L338.06 361.78L337.1 362.49L336.1 363.14L335.06 363.72L334 364.22L332.91 364.66L331.78 365.02L330.64 365.3L329.46 365.51L328.27 365.63L327.06 365.68L325.84 365.63L324.65 365.51L323.47 365.3L322.33 365.02L321.2 364.66L320.11 364.22L319.04 363.72L318.01 363.14L317.01 362.49L316.05 361.78L315.12 361.01L314.23 360.18L313.38 359.29L312.57 358.34L311.81 357.33L311.09 356.28L310.42 355.17L309.8 354.02L309.22 352.82L308.71 351.58L308.24 350.3L307.83 348.97L307.48 347.61L307.19 346.22L306.96 344.8L306.8 343.34L306.7 341.86L306.66 340.35L306.7 338.84L306.8 337.35L306.96 335.9L307.19 334.47L307.48 333.08L307.83 331.72L308.24 330.4L308.71 329.11L309.22 327.87L309.8 326.67L310.42 325.52L311.09 324.42L311.81 323.36L312.57 322.36L313.38 321.41L314.23 320.52L315.12 319.68L316.05 318.91L317.01 318.2L318.01 317.56L319.04 316.98L320.11 316.47L321.2 316.04L322.33 315.68L323.47 315.39L324.65 315.19L325.84 315.06L327.06 315.02L328.27 315.06L329.46 315.19ZM398.16 153.49L397.94 153.52L397.71 153.56L397.49 153.62L397.27 153.69L397.06 153.76L396.85 153.85L396.65 153.95L396.45 154.06L396.25 154.17L396.06 154.3L395.88 154.43L395.7 154.58L395.54 154.73L395.37 154.89L395.22 155.06L395.07 155.23L394.93 155.41L394.8 155.6L394.68 155.8L394.57 156L394.47 156.21L394.38 156.43L394.3 156.65L394.23 156.87L394.18 157.1L394.13 157.34L394.1 157.58L394.08 157.83L394.07 158.07L394.07 234.98L395.1 234.55L396.12 234.12L397.12 233.71L398.12 233.29L399.11 232.89L400.09 232.49L401.05 232.09L402.01 231.7L402.96 231.32L403.89 230.94L404.81 230.57L405.73 230.2L406.63 229.84L407.52 229.49L408.4 229.14L409.26 228.8L410.12 228.46L410.96 228.13L411.79 227.8L412.61 227.49L413.41 227.17L414.21 226.87L414.98 226.57L415.75 226.27L416.5 225.98L417.24 225.7L417.97 225.42L418.68 225.15L419.38 224.89L420.06 224.63L420.73 224.38L421.39 224.13L422.03 223.89L422.65 223.66L423.26 223.43L423.86 223.21L424.44 223L425 222.79L425.55 222.59L426.08 222.4L426.08 169.89L425.52 169.45L424.95 169.01L424.37 168.57L423.8 168.14L423.21 167.7L422.63 167.27L422.04 166.84L421.45 166.41L420.85 165.99L420.26 165.57L419.65 165.15L419.05 164.73L418.44 164.31L417.82 163.9L417.21 163.49L416.59 163.08L415.96 162.67L415.34 162.26L414.71 161.86L414.07 161.46L413.43 161.06L412.79 160.67L412.15 160.27L411.5 159.88L410.85 159.49L410.2 159.1L409.54 158.72L408.88 158.34L408.22 157.96L407.55 157.58L406.88 157.2L406.21 156.83L405.53 156.46L404.85 156.09L404.17 155.73L403.48 155.36L402.79 155L402.1 154.64L401.4 154.29L400.7 153.93L400.48 153.83L400.25 153.73L400.01 153.65L399.78 153.59L399.55 153.53L399.32 153.49L399.08 153.47L398.85 153.45L398.62 153.45L398.39 153.46L398.16 153.49Z" id="d2mU4s3Mp"></path></defs><g><g><g><use xlink:href="#d2mU4s3Mp" opacity="1" fill="#000000" fill-opacity="0.8"></use><g><use xlink:href="#d2mU4s3Mp" opacity="1" fill-opacity="0" stroke="#000000" stroke-width="1" stroke-opacity="0"></use></g></g></g></g></svg>