<svg id="piranha" enable-background="new 0 0 300 300" height="512" viewBox="0 0 300 300" width="512" xmlns="http://www.w3.org/2000/svg"><g><circle cx="204.001" cy="57.185" fill="#4c241d" r="4"/><circle cx="252.001" cy="45.185" fill="#4c241d" r="4"/><circle cx="264.001" cy="101.185" fill="#4c241d" r="4"/><circle cx="166.001" cy="139.185" fill="#efefd2" r="86"/><path d="m228.892 98.31c-1.023 0-2.047-.391-2.828-1.172-1.562-1.562-1.562-4.096 0-5.656l14.785-14.783c1.562-1.562 4.094-1.562 5.656 0s1.562 4.096 0 5.656l-14.785 14.783c-.781.781-1.804 1.172-2.828 1.172z" fill="#4c241d"/><path d="m243.677 98.31c-1.023 0-2.047-.391-2.828-1.172l-14.785-14.783c-1.562-1.561-1.562-4.094 0-5.656s4.094-1.562 5.656 0l14.785 14.783c1.562 1.561 1.562 4.094 0 5.656-.781.781-1.804 1.172-2.828 1.172z" fill="#4c241d"/><path d="m142.001 93.185c-7.719 0-14-6.281-14-14s6.281-14 14-14 14 6.281 14 14-6.281 14-14 14zm0-20c-3.309 0-6 2.691-6 6s2.691 6 6 6 6-2.691 6-6-2.691-6-6-6z" fill="#4c241d"/><g><path d="m216.001 182.654 47.675-28.699c4.714-2.838 9.932 2.664 7.857 8.284l-6.892 18.669c-.421 1.14-.549 2.395-.369 3.616l4.236 28.686c.851 5.764-4.855 9.784-8.958 6.31z" fill="#6b4f5b"/><path d="m262.904 224.815c-2.102 0-4.184-.758-5.938-2.242l-43.551-36.865c-.98-.832-1.504-2.088-1.402-3.373.105-1.285.82-2.441 1.926-3.107l47.676-28.699c3.41-2.049 7.457-1.744 10.543.811 3.512 2.904 4.77 7.842 3.129 12.285l-6.891 18.67c-.191.51-.246 1.088-.164 1.635l4.234 28.697c.676 4.58-1.344 8.906-5.145 11.02-1.409.782-2.917 1.168-4.417 1.168zm-40.063-41.609 39.297 33.262c.461.391.828.441 1.297.186.707-.393 1.328-1.43 1.117-2.859l-4.234-28.686c-.281-1.877-.086-3.812.574-5.59l6.887-18.664c.535-1.451.004-2.754-.719-3.352-.598-.496-.992-.314-1.32-.121z" fill="#4c241d"/></g><g><path d="m161.018 129.185s10.984 0 2.984-20c0 0 44-4 60 20 0 0-15.791 0-15.896 12" fill="#6b4f5b"/><path d="m208.107 145.185c-.012 0-.023 0-.035 0-2.207-.02-3.984-1.824-3.965-4.033.074-8.688 6.227-12.979 12.281-14.811-13.055-12.371-36.465-13.523-46.836-13.391 2.051 6.98 1.82 12.213-.68 15.902-2.852 4.211-7.352 4.332-7.855 4.332-2.211 0-4-1.791-4-4 0-2.172 1.73-3.938 3.887-3.998.184-.018.922-.135 1.395-.895.488-.789 1.797-4.104-2.012-13.621-.469-1.174-.355-2.5.305-3.576.66-1.078 1.789-1.779 3.047-1.895 1.902-.168 46.57-3.92 63.691 21.766.82 1.227.895 2.805.199 4.105s-2.051 2.113-3.527 2.113c-.473.004-11.828.168-11.895 8.033-.02 2.199-1.805 3.969-4 3.969z" fill="#4c241d"/></g><g><path d="m146.819 229.779s10.687 2.534-1.712 20.149c0 0 41.89 14.045 62.996-5.615 0 0-15.365-3.644-12.698-15.344" fill="#6b4f5b"/><path d="m175.775 258.815c-16.426 0-30.906-4.748-31.941-5.094-1.195-.402-2.133-1.346-2.527-2.547-.395-1.199-.199-2.516.531-3.549 5.898-8.383 5.395-11.91 5.098-12.791-.297-.879-1.023-1.152-1.168-1.197-2.047-.656-3.293-2.836-2.719-4.906s2.586-3.342 4.691-2.846c.492.117 4.844 1.273 6.645 6.029 1.578 4.166.598 9.307-3.004 15.625 10.066 2.525 33.121 6.775 48.656-2.219-5.469-3.182-10.461-8.773-8.531-17.242.488-2.152 2.645-3.51 4.785-3.012 2.156.49 3.504 2.635 3.012 4.789-1.762 7.746 9.254 10.453 9.723 10.564 1.438.342 2.566 1.443 2.945 2.869.379 1.428-.062 2.945-1.141 3.951-9.621 8.963-22.875 11.576-35.055 11.576z" fill="#4c241d"/></g><g><path d="m174.271 129.185h-78.269v52h-47.913c.922 28.866 24.553 52 53.644 52h106.06c11.161 0 20.209-9.048 20.209-20.209v-30.06c-.001-29.675-24.057-53.731-53.731-53.731z" fill="#b5a19c"/><path d="m207.794 237.185h-106.062c-31.324 0-56.641-24.543-57.641-55.873-.035-1.082.371-2.133 1.121-2.91.754-.777 1.793-1.217 2.875-1.217h43.914v-48c0-2.209 1.789-4 4-4h78.27c31.832 0 57.73 25.898 57.73 57.73v30.061c0 13.349-10.859 24.209-24.207 24.209zm-155.41-52c2.828 24.984 23.762 44 49.348 44h106.062c8.938 0 16.207-7.271 16.207-16.209v-30.061c0-27.422-22.309-49.73-49.73-49.73h-74.27v48c0 2.209-1.789 4-4 4z" fill="#4c241d"/></g><circle cx="120.002" cy="153.185" fill="#fff" r="12"/><circle cx="120.002" cy="149.185" fill="#4c241d" r="4"/><g><path d="m145.971 177.577 24.73-12.023c3.223-1.567 6.466 2.146 4.889 5.596l-3.797 8.307c-.374.818-.488 1.749-.324 2.645l2.569 14.049c.646 3.535-2.883 6.204-5.678 4.293l-22.854-15.624c-2.555-1.746-2.288-5.905.465-7.243z" fill="#6b4f5b"/><path d="m170.353 205.085c-1.473 0-2.945-.447-4.25-1.34l-22.855-15.621c-2.367-1.619-3.703-4.461-3.488-7.416.219-2.963 1.887-5.477 4.461-6.729l24.73-12.023c2.883-1.402 6.246-.852 8.562 1.416 2.496 2.432 3.184 6.225 1.719 9.438l-3.801 8.311 2.539 14.312c.609 3.324-.773 6.631-3.527 8.42-1.266.822-2.68 1.232-4.09 1.232zm-22.582-23.936c-.047.104-.047.309.004.385l22.219 15.182-2.457-13.895c-.312-1.693-.09-3.482.621-5.033l3.797-8.301c.008-.047.023-.084.043-.117zm-1.801-3.572h.039z" fill="#4c241d"/></g><g fill="#4c241d"><path d="m100.002 133.185h-20c-2.211 0-4-1.791-4-4s1.789-4 4-4h20c2.211 0 4 1.791 4 4s-1.79 4-4 4z"/><path d="m48.002 185.185c-2.211 0-4-1.791-4-4v-12c0-2.209 1.789-4 4-4s4 1.791 4 4v12c0 2.209-1.79 4-4 4z"/><path d="m60.002 181.185c-2.211 0-4-1.791-4-4v-4c0-2.209 1.789-4 4-4s4 1.791 4 4v4c0 2.209-1.79 4-4 4z"/><path d="m72.002 185.185c-2.211 0-4-1.791-4-4v-8c0-2.209 1.789-4 4-4s4 1.791 4 4v8c0 2.209-1.79 4-4 4z"/><path d="m84.002 185.185c-2.211 0-4-1.791-4-4v-8c0-2.209 1.789-4 4-4s4 1.791 4 4v8c0 2.209-1.79 4-4 4z"/><path d="m96.002 145.185h-12c-2.211 0-4-1.791-4-4s1.789-4 4-4h12c2.211 0 4 1.791 4 4s-1.79 4-4 4z"/><path d="m92.002 157.185h-4c-2.211 0-4-1.791-4-4s1.789-4 4-4h4c2.211 0 4 1.791 4 4s-1.79 4-4 4z"/><path d="m40.002 137.185c-2.211 0-4-1.791-4-4v-44c0-22.057 17.945-40 40-40s40 17.943 40 40v40c0 2.209-1.789 4-4 4s-4-1.791-4-4v-40c0-17.645-14.355-32-32-32s-32 14.355-32 32v44c0 2.209-1.79 4-4 4z"/></g><g><circle cx="40.002" cy="145.185" fill="#e66353" r="12"/><path d="m40.002 161.185c-8.824 0-16-7.178-16-16s7.176-16 16-16 16 7.178 16 16-7.176 16-16 16zm0-24c-4.41 0-8 3.588-8 8s3.59 8 8 8 8-3.588 8-8-3.59-8-8-8z" fill="#4c241d"/></g></g></svg>