<svg width="190" height="37" viewBox="0 0 190 37" fill="none" xmlns="http://www.w3.org/2000/svg">
<path d="M10.16 27.252C8.408 27.252 6.824 26.952 5.408 26.352C4.016 25.752 2.912 24.888 2.096 23.76C1.28 22.632 0.86 21.3 0.836 19.764H6.236C6.308 20.796 6.668 21.612 7.316 22.212C7.988 22.812 8.9 23.112 10.052 23.112C11.228 23.112 12.152 22.836 12.824 22.284C13.496 21.708 13.832 20.964 13.832 20.052C13.832 19.308 13.604 18.696 13.148 18.216C12.692 17.736 12.116 17.364 11.42 17.1C10.748 16.812 9.812 16.5 8.612 16.164C6.98 15.684 5.648 15.216 4.616 14.76C3.608 14.28 2.732 13.572 1.988 12.636C1.268 11.676 0.908 10.404 0.908 8.82C0.908 7.332 1.28 6.036 2.024 4.932C2.768 3.828 3.812 2.988 5.156 2.412C6.5 1.812 8.036 1.512 9.764 1.512C12.356 1.512 14.456 2.148 16.064 3.42C17.696 4.668 18.596 6.42 18.764 8.676H13.22C13.172 7.812 12.8 7.104 12.104 6.552C11.432 5.976 10.532 5.688 9.404 5.688C8.42 5.688 7.628 5.94 7.028 6.444C6.452 6.948 6.164 7.68 6.164 8.64C6.164 9.312 6.38 9.876 6.812 10.332C7.268 10.764 7.82 11.124 8.468 11.412C9.14 11.676 10.076 11.988 11.276 12.348C12.908 12.828 14.24 13.308 15.272 13.788C16.304 14.268 17.192 14.988 17.936 15.948C18.68 16.908 19.052 18.168 19.052 19.728C19.052 21.072 18.704 22.32 18.008 23.472C17.312 24.624 16.292 25.548 14.948 26.244C13.604 26.916 12.008 27.252 10.16 27.252ZM18.5255 16.956C18.5255 14.94 18.9215 13.152 19.7135 11.592C20.5295 10.032 21.6215 8.832 22.9895 7.992C24.3815 7.152 25.9295 6.732 27.6335 6.732C29.1215 6.732 30.4175 7.032 31.5215 7.632C32.6495 8.232 33.5495 8.988 34.2215 9.9V7.056H39.2975V27H34.2215V24.084C33.5735 25.02 32.6735 25.8 31.5215 26.424C30.3935 27.024 29.0855 27.324 27.5975 27.324C25.9175 27.324 24.3815 26.892 22.9895 26.028C21.6215 25.164 20.5295 23.952 19.7135 22.392C18.9215 20.808 18.5255 18.996 18.5255 16.956ZM34.2215 17.028C34.2215 15.804 33.9815 14.76 33.5015 13.896C33.0215 13.008 32.3735 12.336 31.5575 11.88C30.7415 11.4 29.8655 11.16 28.9295 11.16C27.9935 11.16 27.1295 11.388 26.3375 11.844C25.5455 12.3 24.8975 12.972 24.3935 13.86C23.9135 14.724 23.6735 15.756 23.6735 16.956C23.6735 18.156 23.9135 19.212 24.3935 20.124C24.8975 21.012 25.5455 21.696 26.3375 22.176C27.1535 22.656 28.0175 22.896 28.9295 22.896C29.8655 22.896 30.7415 22.668 31.5575 22.212C32.3735 21.732 33.0215 21.06 33.5015 20.196C33.9815 19.308 34.2215 18.252 34.2215 17.028ZM45.6599 10.152C46.3079 9.096 47.1479 8.268 48.1799 7.668C49.2359 7.068 50.4359 6.768 51.7799 6.768V12.06H50.4479C48.8639 12.06 47.6639 12.432 46.8479 13.176C46.0559 13.92 45.6599 15.216 45.6599 17.064V27H40.6199V7.056H45.6599V10.152ZM60.4306 27.324C58.5106 27.324 56.7826 26.904 55.2466 26.064C53.7106 25.2 52.4986 23.988 51.6106 22.428C50.7466 20.868 50.3146 19.068 50.3146 17.028C50.3146 14.988 50.7586 13.188 51.6466 11.628C52.5586 10.068 53.7946 8.868 55.3546 8.028C56.9146 7.164 58.6546 6.732 60.5746 6.732C62.4946 6.732 64.2346 7.164 65.7946 8.028C67.3546 8.868 68.5786 10.068 69.4666 11.628C70.3786 13.188 70.8346 14.988 70.8346 17.028C70.8346 19.068 70.3666 20.868 69.4306 22.428C68.5186 23.988 67.2706 25.2 65.6866 26.064C64.1266 26.904 62.3746 27.324 60.4306 27.324ZM60.4306 22.932C61.3426 22.932 62.1946 22.716 62.9866 22.284C63.8026 21.828 64.4506 21.156 64.9306 20.268C65.4106 19.38 65.6506 18.3 65.6506 17.028C65.6506 15.132 65.1466 13.68 64.1386 12.672C63.1546 11.64 61.9426 11.124 60.5026 11.124C59.0626 11.124 57.8506 11.64 56.8666 12.672C55.9066 13.68 55.4266 15.132 55.4266 17.028C55.4266 18.924 55.8946 20.388 56.8306 21.42C57.7906 22.428 58.9906 22.932 60.4306 22.932ZM81.9837 6.768C84.3597 6.768 86.2797 7.524 87.7437 9.036C89.2077 10.524 89.9397 12.612 89.9397 15.3V27H84.8997V15.984C84.8997 14.4 84.5037 13.188 83.7117 12.348C82.9197 11.484 81.8397 11.052 80.4717 11.052C79.0797 11.052 77.9757 11.484 77.1597 12.348C76.3677 13.188 75.9717 14.4 75.9717 15.984V27H70.9317V7.056H75.9717V9.54C76.6437 8.676 77.4957 8.004 78.5277 7.524C79.5837 7.02 80.7357 6.768 81.9837 6.768Z" fill="#eeeeee"/>
<path d="M110.5 27H107.98L94.0484 5.832V27H91.5284V1.836H94.0484L107.98 22.968V1.836H110.5V27ZM121.968 6.984C123.456 6.984 124.788 7.296 125.964 7.92C127.164 8.544 128.1 9.504 128.772 10.8C129.468 12.072 129.816 13.632 129.816 15.48V27H127.332V15.768C127.332 13.632 126.792 12 125.712 10.872C124.656 9.744 123.204 9.18 121.356 9.18C119.46 9.18 117.948 9.78 116.82 10.98C115.692 12.18 115.128 13.944 115.128 16.272V27H112.608V0.36H115.128V10.692C115.752 9.516 116.664 8.604 117.864 7.956C119.088 7.308 120.456 6.984 121.968 6.984ZM140.393 27.288C138.545 27.288 136.877 26.88 135.389 26.064C133.925 25.224 132.761 24.048 131.897 22.536C131.057 21 130.637 19.212 130.637 17.172C130.637 15.132 131.069 13.356 131.933 11.844C132.797 10.308 133.973 9.132 135.461 8.316C136.949 7.476 138.617 7.056 140.465 7.056C142.313 7.056 143.981 7.476 145.469 8.316C146.981 9.132 148.157 10.308 148.997 11.844C149.861 13.356 150.293 15.132 150.293 17.172C150.293 19.188 149.861 20.964 148.997 22.5C148.133 24.036 146.945 25.224 145.433 26.064C143.921 26.88 142.241 27.288 140.393 27.288ZM140.393 25.092C141.689 25.092 142.889 24.804 143.993 24.228C145.097 23.628 145.985 22.74 146.657 21.564C147.353 20.364 147.701 18.9 147.701 17.172C147.701 15.444 147.365 13.992 146.693 12.816C146.021 11.616 145.133 10.728 144.029 10.152C142.925 9.552 141.725 9.252 140.429 9.252C139.133 9.252 137.933 9.552 136.829 10.152C135.725 10.728 134.837 11.616 134.165 12.816C133.517 13.992 133.193 15.444 133.193 17.172C133.193 18.9 133.517 20.364 134.165 21.564C134.837 22.74 135.713 23.628 136.793 24.228C137.897 24.804 139.097 25.092 140.393 25.092ZM160.503 6.984C162.855 6.984 164.775 7.716 166.263 9.18C167.751 10.62 168.495 12.72 168.495 15.48V27H166.011V15.768C166.011 13.632 165.471 12 164.391 10.872C163.335 9.744 161.883 9.18 160.035 9.18C158.139 9.18 156.627 9.78 155.499 10.98C154.371 12.18 153.807 13.944 153.807 16.272V27H151.287V7.344H153.807V10.692C154.431 9.492 155.331 8.58 156.507 7.956C157.683 7.308 159.015 6.984 160.503 6.984ZM178.712 7.056C180.56 7.056 182.168 7.488 183.536 8.352C184.904 9.216 185.888 10.308 186.488 11.628V7.344H189.008V27.504C189.008 29.304 188.612 30.9 187.82 32.292C187.052 33.684 185.972 34.752 184.58 35.496C183.188 36.264 181.604 36.648 179.828 36.648C177.308 36.648 175.208 36.048 173.528 34.848C171.872 33.648 170.84 32.016 170.432 29.952H172.916C173.348 31.32 174.164 32.412 175.364 33.228C176.588 34.044 178.076 34.452 179.828 34.452C181.1 34.452 182.24 34.176 183.248 33.624C184.256 33.096 185.048 32.304 185.624 31.248C186.2 30.192 186.488 28.944 186.488 27.504V22.644C185.864 23.988 184.868 25.104 183.5 25.992C182.156 26.856 180.56 27.288 178.712 27.288C176.912 27.288 175.292 26.868 173.852 26.028C172.436 25.188 171.32 24 170.504 22.464C169.712 20.928 169.316 19.152 169.316 17.136C169.316 15.12 169.712 13.356 170.504 11.844C171.32 10.308 172.436 9.132 173.852 8.316C175.292 7.476 176.912 7.056 178.712 7.056ZM186.488 17.172C186.488 15.588 186.164 14.196 185.516 12.996C184.868 11.796 183.98 10.872 182.852 10.224C181.748 9.576 180.524 9.252 179.18 9.252C177.788 9.252 176.54 9.564 175.436 10.188C174.332 10.812 173.456 11.724 172.808 12.924C172.184 14.1 171.872 15.504 171.872 17.136C171.872 18.744 172.184 20.16 172.808 21.384C173.456 22.584 174.332 23.508 175.436 24.156C176.54 24.78 177.788 25.092 179.18 25.092C180.524 25.092 181.748 24.768 182.852 24.12C183.98 23.472 184.868 22.548 185.516 21.348C186.164 20.148 186.488 18.756 186.488 17.172Z" fill="#eeeeee" fill-opacity="0.8"/>
</svg>
