<?xml version="1.0" encoding="UTF-8" standalone="no"?>
<!DOCTYPE svg PUBLIC "-//W3C//DTD SVG 1.1//EN" "http://www.w3.org/Graphics/SVG/1.1/DTD/svg11.dtd">
<svg version="1.1" xmlns="http://www.w3.org/2000/svg" xmlns:xlink="http://www.w3.org/1999/xlink" preserveAspectRatio="xMidYMid meet" viewBox="0 0 640 640" width="640" height="640"><defs><path d="M297.33 447.65C285.96 447.65 277.06 436.59 277.06 422.48C277.06 408.36 285.96 397.3 297.33 397.3C308.7 397.3 317.6 408.36 317.6 422.48C317.6 436.59 308.7 447.65 297.33 447.65Z" id="a5gMYMEyk"></path><path d="M178.46 516.63C145.7 483.01 153.65 442.77 162.44 426.19C165.03 421.31 171.07 419.46 175.95 422.04C180.82 424.62 182.68 430.67 180.09 435.54C179.91 435.89 161.87 470.98 192.77 502.69C196.61 506.64 196.53 512.97 192.58 516.82C188.68 520.61 182.26 520.53 178.46 516.63Z" id="f7MyHT7q8K"></path><path d="M138.33 527.35C105.57 493.72 113.53 453.48 122.32 436.9C124.9 432.03 130.94 430.17 135.82 432.75C140.69 435.34 142.55 441.38 139.97 446.25C139.78 446.6 121.73 481.69 152.64 513.4C156.49 517.36 156.4 523.68 152.45 527.53C150.51 529.42 147.99 530.36 145.49 530.36C142.88 530.36 140.29 529.36 138.33 527.35Z" id="a12QarDkQC"></path><path d="M98.2 538.06C65.44 504.43 73.39 464.19 82.18 447.61C84.75 442.76 90.75 440.92 95.62 443.47C100.49 446.01 102.38 452.04 99.85 456.92C99.11 458.37 81.9 492.71 112.5 524.12C116.35 528.07 116.27 534.39 112.32 538.24C110.38 540.14 107.87 541.08 105.35 541.08C102.75 541.08 100.16 540.07 98.2 538.06Z" id="g3bgffFKdu"></path><path d="M381.48 527.58C356.73 540.2 316.26 554.01 254.77 557.09C254.6 557.1 254.44 557.1 254.27 557.1C248.98 557.1 244.57 552.95 244.3 547.61C244.02 542.1 248.27 537.41 253.78 537.14C350.63 532.3 390.89 499.36 397.97 492.82C400.02 487.67 401.97 482.43 403.78 477.08C415.93 440.97 422.26 401.42 422.57 359.51C422.66 348.11 417.49 337.61 408.37 330.71C399.2 323.76 387.6 321.62 376.56 324.81C359.46 329.76 222.67 369.35 205.57 374.3C200.47 375.78 195.1 372.99 193.36 367.97C178.53 325.09 139.68 272.38 38.87 264.8C31.13 264.27 26.29 273.16 31 279.38C40.7 292.14 48.96 307.36 55.52 324.59C57.48 329.75 54.9 335.52 49.75 337.48C44.59 339.45 38.82 336.86 36.86 331.71C30.97 316.25 23.65 302.71 15.1 291.46C8.06 282.2 7.14 270.11 12.67 259.93C18.19 249.78 28.8 243.99 40.36 244.88C76.29 247.58 108.05 256.21 134.77 270.51C169.43 289.06 194.33 316.64 208.9 352.54C225.11 347.85 354.8 310.31 371.01 305.62C388.17 300.65 406.18 304 420.43 314.79C434.62 325.53 442.68 341.89 442.55 359.66C442.22 403.69 435.54 445.34 422.7 483.45C404.89 536.34 375.59 580.63 335.63 615.08C331.51 618.64 325.1 618.16 321.55 614.04C317.95 609.86 318.41 603.56 322.59 599.96C346.32 579.5 366 555.26 381.48 527.58Z" id="bXawxfvDs"></path><path d="M-228.97 414.64C-226.67 414.75 -174.56 417.98 -137.73 472.07C-133.8 470.37 -102.32 456.83 -98.39 455.14C-100.91 438.64 -103.13 406.07 -83.47 397.33C-63.25 388.34 -41.99 413.77 -32.37 427.5C-23.95 424.6 43.4 401.38 51.82 398.48C51.25 391.86 50.03 381.21 47.45 368.62C46.34 363.22 49.82 357.93 55.23 356.83C60.64 355.73 65.91 359.2 67.02 364.61C71.74 387.66 72.24 404.47 72.26 405.17C72.38 409.53 69.65 413.46 65.53 414.88C55.66 418.29 -23.31 445.5 -33.18 448.9C-37.6 450.43 -42.49 448.67 -44.94 444.69C-56.89 425.28 -71.41 413.82 -75.36 415.58C-80.57 417.9 -81.57 439.45 -77.39 459.08C-76.39 463.75 -78.83 468.47 -83.21 470.35C-88.65 472.69 -132.18 491.42 -137.62 493.76C-142.21 495.74 -147.54 494.02 -150.12 489.75C-168.99 458.47 -193.53 444.89 -210.4 439.02C-199.35 461.49 -182.78 501.19 -176.48 547.4C-175.76 552.72 -179.54 557.79 -184.85 558.61C-190.3 559.46 -195.53 555.56 -196.27 550.1C-205.27 484 -237.66 430.35 -237.98 429.82C-239.91 426.67 -239.94 422.7 -238.05 419.51C-236.16 416.33 -232.67 414.43 -228.97 414.64Z" id="jv1cGlZ"></path><path d="M-183.77 575.72C-183.72 575.72 -183.68 575.72 -183.63 575.72C-178.18 575.72 -173.72 580.11 -173.65 585.58C-173.32 611.32 -176.2 632.75 -179.2 647.84C-138.68 617.31 -140.49 570.69 -140.61 568.48C-140.85 564.25 -138.3 560.24 -134.38 558.66C-130.32 557.02 -125.54 558.27 -122.82 561.69C-122.26 562.4 -67.67 629.89 24.07 660.59C24.07 660.52 24.08 660.45 24.09 660.37C27.51 630.67 31.39 597 27.41 563.78C26.75 558.3 30.66 553.33 36.13 552.68C41.62 552.02 46.58 555.93 47.24 561.4C51.5 596.95 47.31 633.38 43.93 662.65C40.62 691.45 37.49 718.65 44.93 727.02C46.07 728.3 48.26 730.02 53.98 730.03C54.02 730.03 54.06 730.03 54.11 730.03C82.88 730.03 112.33 708.12 141.63 664.92C167.37 626.95 186.28 581.74 195.27 558.17C197.23 553.01 203 550.43 208.16 552.4C213.31 554.36 215.9 560.13 213.93 565.28C204.94 588.89 186.28 633.51 160.72 672.29C187.97 668.15 215.56 660.24 243 648.64C260.42 641.28 276.85 632.64 291.82 622.96C296.45 619.96 302.63 621.29 305.63 625.92C308.63 630.55 307.3 636.73 302.67 639.73C286.72 650.04 269.26 659.23 250.77 667.04C215.47 681.96 179.85 691.12 144.84 694.34C115.61 731.3 85.16 750.01 54.11 750.01C54.09 750.01 53.95 750.01 53.93 750.01C43.77 749.98 35.72 746.72 30 740.29C19.26 728.22 19.27 707.38 21.85 680.88C-49.26 658.2 -99.06 615.36 -122.78 591.38C-123.85 596.96 -125.44 603.2 -127.77 609.79C-135.29 630.98 -152.3 659.98 -190.67 677.78C-198.54 681.43 -207.17 673.52 -204.29 665.36C-204.17 665.05 -193.02 633.04 -193.62 585.83C-193.69 580.32 -189.28 575.79 -183.77 575.72Z" id="g5tZJVnezZ"></path></defs><g><g><g><use xlink:href="#a5gMYMEyk" opacity="1" fill="#141414" fill-opacity="0.8"></use><g><use xlink:href="#a5gMYMEyk" opacity="1" fill-opacity="0" stroke="#000000" stroke-width="1" stroke-opacity="0"></use></g></g><g><use xlink:href="#f7MyHT7q8K" opacity="1" fill="#141414" fill-opacity="0.8"></use><g><use xlink:href="#f7MyHT7q8K" opacity="1" fill-opacity="0" stroke="#000000" stroke-width="1" stroke-opacity="0"></use></g></g><g><use xlink:href="#a12QarDkQC" opacity="1" fill="#141414" fill-opacity="0.8"></use><g><use xlink:href="#a12QarDkQC" opacity="1" fill-opacity="0" stroke="#000000" stroke-width="1" stroke-opacity="0"></use></g></g><g><use xlink:href="#g3bgffFKdu" opacity="1" fill="#141414" fill-opacity="0.8"></use><g><use xlink:href="#g3bgffFKdu" opacity="1" fill-opacity="0" stroke="#000000" stroke-width="1" stroke-opacity="0"></use></g></g><g><use xlink:href="#bXawxfvDs" opacity="1" fill="#141414" fill-opacity="0.8"></use><g><use xlink:href="#bXawxfvDs" opacity="1" fill-opacity="0" stroke="#000000" stroke-width="1" stroke-opacity="0"></use></g></g><g><use xlink:href="#jv1cGlZ" opacity="1" fill="#141414" fill-opacity="0.8"></use><g><use xlink:href="#jv1cGlZ" opacity="1" fill-opacity="0" stroke="#000000" stroke-width="1" stroke-opacity="0"></use></g></g><g><use xlink:href="#g5tZJVnezZ" opacity="1" fill="#141414" fill-opacity="0.8"></use><g><use xlink:href="#g5tZJVnezZ" opacity="1" fill-opacity="0" stroke="#000000" stroke-width="1" stroke-opacity="0"></use></g></g></g></g></svg>