<svg id="Layer_1_copy" height="512" viewBox="0 0 64 64" width="512" xmlns="http://www.w3.org/2000/svg" data-name="Layer 1 copy"><path d="m62 47a31.215 31.215 0 0 1 -4 2 8.972 8.972 0 0 1 -3.168.516 26.072 26.072 0 0 1 -7.009-1.287c-.212-.064-.647-.187-.818-.229v16h-18.005v-16l-2-9h-2.99a3.4 3.4 0 0 1 -1.726-.478l-3.625-2.152-1.659 23.63v2h-2c-.086-.016-.406-.158-.489-.18h-.027l-.319-.1a5.634 5.634 0 0 1 -.952-.406 5.976 5.976 0 0 1 -2.87-3.338c-.044-.114-.08-.229-.113-.342a4.482 4.482 0 0 1 -.151-.7 2.733 2.733 0 0 1 -.057-.456c-.012-.165-.022-.322-.022-.478v-35c0-4.039 2.455-7.912 6.567-10.358l.123-.067a13.544 13.544 0 0 1 4.988-1.875c.357-.058.72-.1 1.084-.138l.464-.033c.318-.016.541-.025.773-.025v-3.504l10.001-3v9h30v35.98z" fill="#e29344"/><path d="m64 42v4.98c-.36 0-2 .02-2 .02a.01.01 0 0 0 -.01.01 26.467 26.467 0 0 1 -3.99 1.99c-3.7 1.4-8.94-.44-11-1l-1-6z" fill="#844215"/><path d="m36 39v25h-3v-18a2.025 2.025 0 0 0 -.05-.43l-1.46-6.57z" fill="#844215"/><path d="m10 52.5v-31.5c0-4.039 2.455-7.912 6.567-10.358l.123-.067a13.544 13.544 0 0 1 4.988-1.875l2.322-.384v8.675l-.789.6c-.059.046-6.717 5.349-9.248 18.409z" fill="#f9b775"/><path d="m40 21v10.99a2 2 0 0 1 -2.01 2l-9.99-.052s-4-.248-4-6.938a3 3 0 0 0 3 3h9s.75-8.11-1.01-10.16a4.3 4.3 0 0 1 -.99-2.84v-6.04l4 .04v6s1.69.31 2 4z" fill="#c86a25"/><g fill="#082944"><path d="m52 19a1 1 0 0 1 -1-1v-2a1 1 0 0 1 2 0v2a1 1 0 0 1 -1 1z"/><path d="m59 19a1 1 0 0 1 -1-1v-2a1 1 0 0 1 2 0v2a1 1 0 0 1 -1 1z"/><path d="m32 40h-8a8.461 8.461 0 0 1 -4.118-1.744 13.445 13.445 0 0 0 -1.641-.978 1 1 0 1 1 .837-1.816 15.073 15.073 0 0 1 1.9 1.123 6.981 6.981 0 0 0 3.071 1.415h7.951a1 1 0 0 1 0 2z"/><path d="m47 64a1 1 0 0 1 -1-1v-15a1 1 0 0 1 1.261-.965c.241.064.523.146.842.239 2.3.669 6.578 1.911 9.543.79a25.061 25.061 0 0 0 3.847-1.926 1 1 0 0 1 .507-.138h1a1 1 0 0 1 0 2h-.729a26.045 26.045 0 0 1 -3.917 1.936c-3.381 1.281-7.75.142-10.354-.608v13.672a1 1 0 0 1 -1 1z"/><path d="m29 64a1 1 0 0 1 -1-1v-14.891l-1.976-8.893a1 1 0 1 1 1.952-.434l2 9a.98.98 0 0 1 .024.218v15a1 1 0 0 1 -1 1z"/><path d="m24 63h-8a7.008 7.008 0 0 1 -7-7v-16a1 1 0 0 1 2 0v16a5.006 5.006 0 0 0 5 5h8a1 1 0 0 1 0 2z"/><path d="m36 31h-9a4 4 0 0 1 -4-4v-6h2v6a2 2 0 0 0 2 2h8.076c.208-3.166.087-7.428-.846-8.51a5.319 5.319 0 0 1 -1.23-3.49v-9h2v9a3.325 3.325 0 0 0 .744 2.184c1.947 2.256 1.384 9.483 1.256 10.909a1 1 0 0 1 -1 .907z"/><path d="m24 17a1 1 0 0 1 -1-1v-9a1 1 0 0 1 2 0v9a1 1 0 0 1 -1 1z"/><path d="m17 63h-.065a1 1 0 0 1 -.935-1.064l2-31a1 1 0 1 1 2 .129l-2 31a1 1 0 0 1 -1 .935z"/><path d="m15.651 40.21c-12.186 0-14.609-11.893-14.633-12.022a1 1 0 0 1 1.964-.377c.1.492 2.506 12.043 15.36 10.2a1 1 0 0 1 .283 1.98 21.141 21.141 0 0 1 -2.974.219z"/><path d="m63 43h-17a1 1 0 0 1 0-2h17a1 1 0 0 1 0 2z"/><path d="m6.882 42.558a6.465 6.465 0 0 1 -5.776-3.11 1 1 0 0 1 1.785-.9c.079.149 1.758 3.184 6.793 1.506a1 1 0 1 1 .633 1.9 10.86 10.86 0 0 1 -3.435.604z"/><path d="m56 38h-1a1 1 0 0 1 0-2h1a1 1 0 0 1 0 2z"/><path d="m60 38h-1a1 1 0 0 1 0-2h1a1 1 0 0 1 0 2z"/><path d="m63 12h-19a1 1 0 0 1 0-2h19a1 1 0 0 1 0 2z"/><path d="m40 12h-6a1 1 0 0 1 -1-1v-3a1 1 0 0 1 2 0v2h5a1 1 0 0 1 0 2z"/><path d="m10 25a1 1 0 0 1 -1-1v-3c0-7.364 7.195-12.954 14-13.462v-2.538a1 1 0 0 1 .713-.958l10-3a1 1 0 0 1 1.287.958v2a1 1 0 0 1 -2 0v-.656l-8 2.4v2.756a1 1 0 0 1 -1 1c-6.137 0-13 4.918-13 11.5v3a1 1 0 0 1 -1 1z"/><path d="m10 34a1 1 0 0 1 -1-1v-5a1 1 0 0 1 2 0v5a1 1 0 0 1 -1 1z"/><path d="m24 28a1 1 0 0 1 -1-1v-6a1 1 0 0 1 2 0v6a1 1 0 0 1 -1 1z"/><path d="m32 40h-8a8.461 8.461 0 0 1 -4.118-1.744 13.445 13.445 0 0 0 -1.641-.978 1 1 0 1 1 .837-1.816 15.073 15.073 0 0 1 1.9 1.123 6.981 6.981 0 0 0 3.071 1.415h7.951a1 1 0 0 1 0 2z"/><path d="m36 47a1 1 0 0 1 -1-1v-10a1 1 0 0 1 2 0v10a1 1 0 0 1 -1 1z"/><path d="m36 64a1 1 0 0 1 -1-1v-13a1 1 0 0 1 2 0v13a1 1 0 0 1 -1 1z"/><path d="m61.99 48.01a1 1 0 0 1 -1-1 1.016 1.016 0 0 1 1.01-1.01h1a1 1 0 0 1 0 2h-.87a.952.952 0 0 1 -.14.01z"/><path d="m29 64a1 1 0 0 1 -1-1v-14.891l-1.976-8.893a1 1 0 1 1 1.952-.434l2 9a.98.98 0 0 1 .024.218v15a1 1 0 0 1 -1 1z"/><path d="m24 63h-8a7.008 7.008 0 0 1 -7-7v-16a1 1 0 0 1 2 0v16a5.006 5.006 0 0 0 5 5h8a1 1 0 0 1 0 2z"/><path d="m36 31h-9a4 4 0 0 1 -4-4v-6h2v6a2 2 0 0 0 2 2h8.076c.208-3.166.087-7.428-.846-8.51a5.319 5.319 0 0 1 -1.23-3.49v-9h2v9a3.325 3.325 0 0 0 .744 2.184c1.947 2.256 1.384 9.483 1.256 10.909a1 1 0 0 1 -1 .907z"/></g></svg>